<svg xmlns="http://www.w3.org/2000/svg" xmlns:xlink="http://www.w3.org/1999/xlink" viewBox="0 0 111.21295 153.95662"><defs><style>.cls-1{fill:none;}.cls-2{fill:url(#linear-gradient);}.cls-3{fill:url(#linear-gradient-2);}.cls-4{clip-path:url(#clip-path);}.cls-5{fill:url(#linear-gradient-3);}.cls-6{opacity:0.2;fill:url(#radial-gradient);}</style><linearGradient id="linear-gradient" x1="55.60647" y1="52.37654" x2="55.60647" y2="153.95662" gradientUnits="userSpaceOnUse"><stop offset="0.24432" stop-color="#be2534"/><stop offset="0.35695" stop-color="#bf2935"/><stop offset="0.46362" stop-color="#c33438"/><stop offset="0.56794" stop-color="#c8473e"/><stop offset="0.67079" stop-color="#d06246"/><stop offset="0.7726" stop-color="#db8550"/><stop offset="0.87356" stop-color="#e8af5c"/><stop offset="0.97223" stop-color="#f7e16b"/><stop offset="0.97465" stop-color="#f7e26b"/></linearGradient><linearGradient id="linear-gradient-2" x1="55.60647" y1="35.2928" x2="55.60647" y2="133.95676" gradientUnits="userSpaceOnUse"><stop offset="0.11025" stop-color="#be2534"/><stop offset="0.23444" stop-color="#c43a3a"/><stop offset="0.49042" stop-color="#d46f4a"/><stop offset="0.85289" stop-color="#eec462"/><stop offset="0.97465" stop-color="#f7e26b"/></linearGradient><clipPath id="clip-path"><path class="cls-1" d="M47.93484,4.42922,1.2,85.3763A8.85844,8.85844,0,0,0,8.87165,98.664H102.3413a8.85844,8.85844,0,0,0,7.67163-13.28766L63.27811,4.42922A8.85844,8.85844,0,0,0,47.93484,4.42922Z"/></clipPath><linearGradient id="linear-gradient-3" x1="-22.92213" y1="64.54215" x2="55.60159" y2="64.54215" gradientUnits="userSpaceOnUse"><stop offset="0.11025" stop-color="#be2534"/><stop offset="0.39233" stop-color="#c02b36" stop-opacity="0.98299"/><stop offset="0.56743" stop-color="#c6413c" stop-opacity="0.92691"/><stop offset="0.7134" stop-color="#d16547" stop-opacity="0.8313"/><stop offset="0.84329" stop-color="#e19855" stop-opacity="0.69602"/><stop offset="0.96148" stop-color="#f4d969" stop-opacity="0.52264"/><stop offset="0.97465" stop-color="#f7e26b" stop-opacity="0.5"/></linearGradient><radialGradient id="radial-gradient" cx="55.60647" cy="131.76549" r="61.91531" xlink:href="#linear-gradient-2"/></defs><g id="Text"><path class="cls-2" d="M97.65646,153.95662a253.63481,253.63481,0,0,0-84.1,0l26.40991-63.8,15.64014-37.78,15.63989,37.78Z"/><path class="cls-3" d="M47.93484,4.42922,1.2,85.3763A8.85844,8.85844,0,0,0,8.87165,98.664H102.3413a8.85844,8.85844,0,0,0,7.67163-13.28766L63.27811,4.42922A8.85844,8.85844,0,0,0,47.93484,4.42922Z"/><g class="cls-4"><rect class="cls-5" x="-22.92213" y="-35.08152" width="78.52372" height="199.24734"/><circle class="cls-6" cx="55.60647" cy="131.76549" r="61.91531"/></g></g></svg>