<svg width="304" height="316" viewBox="0 0 304 316" fill="none" xmlns="http://www.w3.org/2000/svg">
<mask id="path-1-inside-1_596_188" fill="white">
<path fill-rule="evenodd" clip-rule="evenodd" d="M35 0C15.67 0 0 15.67 0 35V171.667L5 185L0 197.188V240.867L11.5 258.5L0 279.583V281C0 300.33 15.67 316 35 316H269C288.33 316 304 300.33 304 281V266.958L298.5 244.5L304 210.4V94.5143L298.5 75.5L304 62.25V35C304 15.67 288.33 0 269 0H35Z"/>
</mask>
<path fill-rule="evenodd" clip-rule="evenodd" d="M35 0C15.67 0 0 15.67 0 35V171.667L5 185L0 197.188V240.867L11.5 258.5L0 279.583V281C0 300.33 15.67 316 35 316H269C288.33 316 304 300.33 304 281V266.958L298.5 244.5L304 210.4V94.5143L298.5 75.5L304 62.25V35C304 15.67 288.33 0 269 0H35Z" fill="#F8BC47"/>
<path d="M0 171.667H-2V172.029L-1.87266 172.369L0 171.667ZM5 185L6.85034 185.759L7.14831 185.033L6.87266 184.298L5 185ZM0 197.188L-1.85034 196.428L-2 196.793V197.188H0ZM0 240.867H-2V241.461L-1.67522 241.959L0 240.867ZM11.5 258.5L13.2558 259.458L13.8281 258.409L13.1752 257.407L11.5 258.5ZM0 279.583L-1.75579 278.626L-2 279.073V279.583H0ZM304 266.958H306V266.717L305.943 266.483L304 266.958ZM298.5 244.5L296.526 244.182L296.461 244.582L296.557 244.976L298.5 244.5ZM304 210.4L305.974 210.718L306 210.56V210.4H304ZM304 94.5143H306V94.2308L305.921 93.9585L304 94.5143ZM298.5 75.5L296.653 74.7332L296.384 75.3815L296.579 76.0557L298.5 75.5ZM304 62.25L305.847 63.0168L306 62.6486V62.25H304ZM2 35C2 16.7746 16.7746 2 35 2V-2C14.5655 -2 -2 14.5655 -2 35H2ZM2 171.667V35H-2V171.667H2ZM6.87266 184.298L1.87266 170.964L-1.87266 172.369L3.12734 185.702L6.87266 184.298ZM1.85034 197.947L6.85034 185.759L3.14966 184.241L-1.85034 196.428L1.85034 197.947ZM2 240.867V197.188H-2V240.867H2ZM13.1752 257.407L1.67522 239.774L-1.67522 241.959L9.82478 259.593L13.1752 257.407ZM1.75579 280.541L13.2558 259.458L9.74421 257.542L-1.75579 278.626L1.75579 280.541ZM2 281V279.583H-2V281H2ZM35 314C16.7746 314 2 299.225 2 281H-2C-2 301.435 14.5655 318 35 318V314ZM269 314H35V318H269V314ZM302 281C302 299.225 287.225 314 269 314V318C289.435 318 306 301.435 306 281H302ZM302 266.958V281H306V266.958H302ZM305.943 266.483L300.443 244.024L296.557 244.976L302.057 267.434L305.943 266.483ZM300.474 244.818L305.974 210.718L302.026 210.082L296.526 244.182L300.474 244.818ZM302 94.5143V210.4H306V94.5143H302ZM305.921 93.9585L300.421 74.9443L296.579 76.0557L302.079 95.07L305.921 93.9585ZM300.347 76.2668L305.847 63.0168L302.153 61.4832L296.653 74.7332L300.347 76.2668ZM302 35V62.25H306V35H302ZM269 2C287.225 2 302 16.7746 302 35H306C306 14.5655 289.435 -2 269 -2V2ZM35 2H269V-2H35V2Z" fill="#513914" mask="url(#path-1-inside-1_596_188)"/>
<path fill-rule="evenodd" clip-rule="evenodd" d="M117 10.5L93.6 4H45C25.67 4 10 19.67 10 39V171.667L15 185L10 197.188V240.867L21.5 258.5L10.0831 279.431C11.3314 297.627 26.4872 312 45 312H257C276.33 312 292 296.33 292 277V39C292 22.1552 280.1 8.08975 264.248 4.75151L258.5 10.5H117Z" fill="#F8D947"/>
<path d="M52 292.5L39 295.5L60 301.5L52 292.5Z" fill="#F5F5F5" fill-opacity="0.8"/>
<path d="M263 133V115L270 119L277.5 133L272.5 143.5L263 133Z" fill="#F5F5F5" fill-opacity="0.8"/>
<path d="M257.5 13H117L110.5 16.5H257.5C260.3 16.5 258.667 14.1667 257.5 13Z" fill="#F5F5F5" fill-opacity="0.8"/>
</svg>
