<svg width="317" height="83" viewBox="0 0 317 83" fill="none" xmlns="http://www.w3.org/2000/svg">
<g filter="url(#filter0_d_179_480)">
<rect width="294" height="79" rx="39.5" fill="url(#paint0_linear_179_480)"/>
<rect x="1.5" y="1.5" width="291" height="76" rx="38" stroke="white" stroke-width="3"/>
</g>
<path d="M4.70898 36C4.70898 17.7746 19.4836 3 37.709 3H256.595C274.82 3 289.595 17.7746 289.595 36C289.595 54.2254 274.82 69 256.595 69H37.709C19.4836 69 4.70898 54.2254 4.70898 36Z" fill="url(#paint1_linear_179_480)"/>
<path fill-rule="evenodd" clip-rule="evenodd" d="M123.838 3H37.7085C19.4831 3 4.7085 17.7746 4.7085 36C4.7085 54.2254 19.4831 69 37.7085 69H168.696L123.838 3Z" fill="#FFED9A" fill-opacity="0.5"/>
<path d="M35 31V47L42 43L50 47L57 43V27L50 31L42 27L35 31Z" stroke="black" stroke-width="2" stroke-linecap="round" stroke-linejoin="round"/>
<path d="M42 27V43" stroke="black" stroke-width="2" stroke-linecap="round" stroke-linejoin="round"/>
<path d="M50 31V47" stroke="black" stroke-width="2" stroke-linecap="round" stroke-linejoin="round"/>
<path d="M84.043 41.2812H87.8398C87.7773 42.4531 87.457 43.4883 86.8789 44.3867C86.3086 45.2773 85.5156 45.9766 84.5 46.4844C83.4844 46.9844 82.2773 47.2344 80.8789 47.2344C79.7617 47.2344 78.7617 47.043 77.8789 46.6602C76.9961 46.2773 76.2461 45.7305 75.6289 45.0195C75.0195 44.3008 74.5508 43.4375 74.2227 42.4297C73.9023 41.4141 73.7422 40.2695 73.7422 38.9961V37.9531C73.7422 36.6797 73.9102 35.5352 74.2461 34.5195C74.582 33.5039 75.0625 32.6367 75.6875 31.918C76.3125 31.1992 77.0625 30.6484 77.9375 30.2656C78.8125 29.8828 79.7891 29.6914 80.8672 29.6914C82.3203 29.6914 83.5469 29.9531 84.5469 30.4766C85.5469 31 86.3203 31.7188 86.8672 32.6328C87.4219 33.5469 87.7539 34.5898 87.8633 35.7617H84.0547C84.0234 35.0977 83.8984 34.5391 83.6797 34.0859C83.4609 33.625 83.125 33.2773 82.6719 33.043C82.2188 32.8086 81.6172 32.6914 80.8672 32.6914C80.3203 32.6914 79.8398 32.793 79.4258 32.9961C79.0195 33.1992 78.6797 33.5156 78.4062 33.9453C78.1406 34.375 77.9414 34.9219 77.8086 35.5859C77.6758 36.2422 77.6094 37.0234 77.6094 37.9297V38.9961C77.6094 39.8945 77.668 40.6719 77.7852 41.3281C77.9023 41.9844 78.0898 42.5273 78.3477 42.957C78.6133 43.3867 78.9531 43.707 79.3672 43.918C79.7812 44.1289 80.2852 44.2344 80.8789 44.2344C81.5586 44.2344 82.125 44.1289 82.5781 43.918C83.0312 43.6992 83.3789 43.3711 83.6211 42.9336C83.8633 42.4961 84.0039 41.9453 84.043 41.2812ZM101.41 36.8047V39.7578H92.5742V36.8047H101.41ZM93.7812 29.9375V47H89.9609V29.9375H93.7812ZM104.047 29.9375V47H100.238V29.9375H104.047ZM114.184 33.1836L109.777 47H105.699L112.016 29.9375H114.594L114.184 33.1836ZM117.84 47L113.422 33.1836L112.965 29.9375H115.578L121.918 47H117.84ZM117.652 40.6484V43.6016H108.758V40.6484H117.652ZM134.469 44.0469V47H125.855V44.0469H134.469ZM127.156 29.9375V47H123.336V29.9375H127.156ZM147.477 44.0469V47H138.863V44.0469H147.477ZM140.164 29.9375V47H136.344V29.9375H140.164ZM160.953 44.0469V47H151.871V44.0469H160.953ZM153.172 29.9375V47H149.352V29.9375H153.172ZM159.781 36.8047V39.6641H151.871V36.8047H159.781ZM160.965 29.9375V32.9023H151.871V29.9375H160.965ZM176.902 29.9375V47H173.094L166.648 35.9727V47H162.828V29.9375H166.648L173.105 40.9648V29.9375H176.902ZM193.473 37.9883V44.8672C193.191 45.1875 192.762 45.5312 192.184 45.8984C191.613 46.2656 190.883 46.582 189.992 46.8477C189.102 47.1055 188.039 47.2344 186.805 47.2344C185.688 47.2344 184.672 47.0547 183.758 46.6953C182.844 46.3281 182.059 45.793 181.402 45.0898C180.746 44.3789 180.238 43.5117 179.879 42.4883C179.527 41.4648 179.352 40.293 179.352 38.9727V37.9648C179.352 36.6445 179.527 35.4727 179.879 34.4492C180.23 33.4258 180.727 32.5625 181.367 31.8594C182.008 31.1484 182.77 30.6094 183.652 30.2422C184.535 29.875 185.512 29.6914 186.582 29.6914C188.105 29.6914 189.352 29.9375 190.32 30.4297C191.289 30.9141 192.023 31.5859 192.523 32.4453C193.031 33.3047 193.344 34.293 193.461 35.4102H189.781C189.703 34.8398 189.547 34.3477 189.312 33.9336C189.086 33.5195 188.762 33.2031 188.34 32.9844C187.918 32.7578 187.371 32.6445 186.699 32.6445C186.16 32.6445 185.672 32.7578 185.234 32.9844C184.805 33.2031 184.441 33.5352 184.145 33.9805C183.848 34.4258 183.621 34.9805 183.465 35.6445C183.309 36.3008 183.23 37.0664 183.23 37.9414V38.9727C183.23 39.8477 183.309 40.6172 183.465 41.2812C183.629 41.9453 183.867 42.5 184.18 42.9453C184.492 43.3828 184.887 43.7148 185.363 43.9414C185.848 44.168 186.41 44.2812 187.051 44.2812C187.551 44.2812 187.973 44.2422 188.316 44.1641C188.66 44.0781 188.941 43.9727 189.16 43.8477C189.379 43.7148 189.543 43.5938 189.652 43.4844V40.6484H186.617V37.9883H193.473ZM207.688 44.0469V47H198.605V44.0469H207.688ZM199.906 29.9375V47H196.086V29.9375H199.906ZM206.516 36.8047V39.6641H198.605V36.8047H206.516ZM207.699 29.9375V32.9023H198.605V29.9375H207.699ZM217.367 29.9375H220.531L224.633 42.1367L228.723 29.9375H231.887L225.91 47H223.344L217.367 29.9375ZM215.539 29.9375H218.762L219.359 42.582V47H215.539V29.9375ZM230.492 29.9375H233.727V47H229.895V42.582L230.492 29.9375ZM243.863 33.1836L239.457 47H235.379L241.695 29.9375H244.273L243.863 33.1836ZM247.52 47L243.102 33.1836L242.645 29.9375H245.258L251.598 47H247.52ZM247.332 40.6484V43.6016H238.438V40.6484H247.332ZM259.742 41.0703H255.453V38.1055H259.742C260.375 38.1055 260.883 38 261.266 37.7891C261.656 37.5781 261.941 37.2891 262.121 36.9219C262.309 36.5469 262.402 36.125 262.402 35.6562C262.402 35.1719 262.309 34.7227 262.121 34.3086C261.941 33.8867 261.656 33.5469 261.266 33.2891C260.883 33.0312 260.375 32.9023 259.742 32.9023H256.836V47H253.016V29.9375H259.742C261.102 29.9375 262.266 30.1836 263.234 30.6758C264.211 31.168 264.957 31.8438 265.473 32.7031C265.996 33.5547 266.258 34.5312 266.258 35.6328C266.258 36.7344 265.996 37.6914 265.473 38.5039C264.957 39.3164 264.211 39.9492 263.234 40.4023C262.266 40.8477 261.102 41.0703 259.742 41.0703Z" fill="black"/>
<path d="M84.043 41.2812V40.2812H83.1001L83.0447 41.2225L84.043 41.2812ZM87.8398 41.2812L88.8384 41.3345L88.8946 40.2812H87.8398V41.2812ZM86.8789 44.3867L86.038 43.8456L86.0368 43.8475L86.8789 44.3867ZM84.5 46.4844L84.9417 47.3816L84.9472 47.3788L84.5 46.4844ZM75.6289 45.0195L74.8661 45.6663L74.8738 45.6751L75.6289 45.0195ZM74.2227 42.4297L73.2689 42.7305L73.2718 42.7393L74.2227 42.4297ZM86.8672 32.6328L86.009 33.1462L86.0123 33.1516L86.8672 32.6328ZM87.8633 35.7617V36.7617H88.961L88.859 35.6688L87.8633 35.7617ZM84.0547 35.7617L83.0558 35.8087L83.1006 36.7617H84.0547V35.7617ZM83.6797 34.0859L82.7762 34.5147L82.7791 34.5207L83.6797 34.0859ZM79.4258 32.9961L78.9853 32.0983L78.9786 32.1017L79.4258 32.9961ZM78.4062 33.9453L77.5625 33.4084L77.5557 33.4195L78.4062 33.9453ZM77.8086 35.5859L78.7887 35.7843L78.7892 35.7821L77.8086 35.5859ZM78.3477 42.957L77.4901 43.4716L77.4971 43.4829L78.3477 42.957ZM82.5781 43.918L83.0002 44.8246L83.0129 44.8185L82.5781 43.918ZM84.043 42.2812H87.8398V40.2812H84.043V42.2812ZM86.8413 41.228C86.7871 42.2438 86.513 43.1074 86.038 43.8456L87.7198 44.9278C88.4011 43.8692 88.7676 42.6624 88.8384 41.3345L86.8413 41.228ZM86.0368 43.8475C85.5708 44.5751 84.9195 45.1566 84.0528 45.5899L84.9472 47.3788C86.1118 46.7965 87.0463 45.9796 87.721 44.926L86.0368 43.8475ZM84.0583 45.5872C83.2086 46.0055 82.1595 46.2344 80.8789 46.2344V48.2344C82.3952 48.2344 83.7601 47.9632 84.9417 47.3815L84.0583 45.5872ZM80.8789 46.2344C79.8767 46.2344 79.0154 46.063 78.2767 45.7427L77.4811 47.5776C78.508 48.0229 79.6467 48.2344 80.8789 48.2344V46.2344ZM78.2767 45.7427C77.528 45.418 76.901 44.9594 76.384 44.364L74.8738 45.6751C75.5912 46.5015 76.4642 47.1367 77.4811 47.5776L78.2767 45.7427ZM76.3917 44.3728C75.8761 43.7648 75.4664 43.0198 75.1735 42.1201L73.2718 42.7393C73.6351 43.8552 74.1629 44.8368 74.8661 45.6662L76.3917 44.3728ZM75.1763 42.1289C74.892 41.2275 74.7422 40.1868 74.7422 38.9961H72.7422C72.7422 40.3522 72.9126 41.6007 73.269 42.7305L75.1763 42.1289ZM74.7422 38.9961V37.9531H72.7422V38.9961H74.7422ZM74.7422 37.9531C74.7422 36.7667 74.8988 35.7307 75.1955 34.8336L73.2967 34.2055C72.9216 35.3396 72.7422 36.5927 72.7422 37.9531H74.7422ZM75.1955 34.8336C75.4949 33.9283 75.9142 33.1813 76.4421 32.5741L74.9329 31.2618C74.2108 32.0922 73.6691 33.0795 73.2967 34.2055L75.1955 34.8336ZM76.4421 32.5741C76.9696 31.9675 77.5987 31.5054 78.3383 31.1818L77.5367 29.3495C76.5263 29.7915 75.6554 30.4309 74.9329 31.2618L76.4421 32.5741ZM78.3383 31.1818C79.0716 30.861 79.9093 30.6914 80.8672 30.6914V28.6914C79.6689 28.6914 78.5534 28.9047 77.5367 29.3495L78.3383 31.1818ZM80.8672 30.6914C82.2039 30.6914 83.2614 30.9324 84.0831 31.3625L85.0106 29.5906C83.8323 28.9738 82.4368 28.6914 80.8672 28.6914V30.6914ZM84.0831 31.3625C84.93 31.8058 85.5625 32.3999 86.009 33.1462L87.7253 32.1194C87.0781 31.0376 86.1637 30.1942 85.0106 29.5906L84.0831 31.3625ZM86.0123 33.1516C86.4808 33.9236 86.7709 34.8182 86.8676 35.8546L88.859 35.6688C88.7369 34.3615 88.363 33.1702 87.7221 32.114L86.0123 33.1516ZM87.8633 34.7617H84.0547V36.7617H87.8633V34.7617ZM85.0536 35.7147C85.0179 34.9571 84.8731 34.2578 84.5802 33.6512L82.7791 34.5207C82.9238 34.8203 83.0289 35.2382 83.0558 35.8087L85.0536 35.7147ZM84.5831 33.6572C84.2706 32.9987 83.7787 32.4896 83.1313 32.1548L82.2125 33.9312C82.4713 34.0651 82.6513 34.2513 82.7763 34.5147L84.5831 33.6572ZM83.1313 32.1548C82.4851 31.8205 81.7075 31.6914 80.8672 31.6914V33.6914C81.5268 33.6914 81.9524 33.7967 82.2125 33.9312L83.1313 32.1548ZM80.8672 31.6914C80.1958 31.6914 79.5597 31.8166 78.9854 32.0983L79.8662 33.8939C80.12 33.7694 80.4449 33.6914 80.8672 33.6914V31.6914ZM78.9786 32.1017C78.3912 32.3954 77.9212 32.8449 77.5626 33.4084L79.2499 34.4822C79.4381 34.1864 79.6479 34.0031 79.873 33.8905L78.9786 32.1017ZM77.5557 33.4195C77.2101 33.9784 76.9767 34.6463 76.828 35.3898L78.7892 35.7821C78.9061 35.1974 79.0711 34.7716 79.2568 34.4711L77.5557 33.4195ZM76.8285 35.3876C76.6787 36.1274 76.6094 36.9785 76.6094 37.9297H78.6094C78.6094 37.0684 78.6728 36.357 78.7887 35.7843L76.8285 35.3876ZM76.6094 37.9297V38.9961H78.6094V37.9297H76.6094ZM76.6094 38.9961C76.6094 39.9346 76.6703 40.7736 76.8007 41.5039L78.7696 41.1523C78.6656 40.5701 78.6094 39.8545 78.6094 38.9961H76.6094ZM76.8007 41.5039C76.9326 42.2426 77.1529 42.9094 77.4902 43.4715L79.2052 42.4425C79.0268 42.1452 78.8721 41.7261 78.7696 41.1523L76.8007 41.5039ZM77.4971 43.4829C77.8503 44.0543 78.3219 44.5078 78.9133 44.809L79.8211 43.0269C79.5843 42.9063 79.3763 42.7192 79.1982 42.4312L77.4971 43.4829ZM78.9133 44.809C79.5015 45.1087 80.1699 45.2344 80.8789 45.2344V43.2344C80.4004 43.2344 80.061 43.1491 79.8211 43.0269L78.9133 44.809ZM80.8789 45.2344C81.6548 45.2344 82.3763 45.115 83.0002 44.8246L82.1561 43.0114C81.8737 43.1428 81.4624 43.2344 80.8789 43.2344V45.2344ZM83.0129 44.8185C83.651 44.5105 84.153 44.0375 84.496 43.4179L82.7462 42.4493C82.6048 42.7047 82.4115 42.888 82.1434 43.0174L83.0129 44.8185ZM84.496 43.4179C84.8304 42.8138 84.9962 42.1063 85.0412 41.34L83.0447 41.2225C83.0116 41.7843 82.8961 42.1784 82.7462 42.4493L84.496 43.4179ZM101.41 36.8047H102.41V35.8047H101.41V36.8047ZM101.41 39.7578V40.7578H102.41V39.7578H101.41ZM92.5742 39.7578H91.5742V40.7578H92.5742V39.7578ZM92.5742 36.8047V35.8047H91.5742V36.8047H92.5742ZM93.7812 29.9375H94.7812V28.9375H93.7812V29.9375ZM93.7812 47V48H94.7812V47H93.7812ZM89.9609 47H88.9609V48H89.9609V47ZM89.9609 29.9375V28.9375H88.9609V29.9375H89.9609ZM104.047 29.9375H105.047V28.9375H104.047V29.9375ZM104.047 47V48H105.047V47H104.047ZM100.238 47H99.2383V48H100.238V47ZM100.238 29.9375V28.9375H99.2383V29.9375H100.238ZM100.41 36.8047V39.7578H102.41V36.8047H100.41ZM101.41 38.7578H92.5742V40.7578H101.41V38.7578ZM93.5742 39.7578V36.8047H91.5742V39.7578H93.5742ZM92.5742 37.8047H101.41V35.8047H92.5742V37.8047ZM92.7812 29.9375V47H94.7812V29.9375H92.7812ZM93.7812 46H89.9609V48H93.7812V46ZM90.9609 47V29.9375H88.9609V47H90.9609ZM89.9609 30.9375H93.7812V28.9375H89.9609V30.9375ZM103.047 29.9375V47H105.047V29.9375H103.047ZM104.047 46H100.238V48H104.047V46ZM101.238 47V29.9375H99.2383V47H101.238ZM100.238 30.9375H104.047V28.9375H100.238V30.9375ZM114.184 33.1836L115.136 33.4874L115.164 33.4L115.176 33.309L114.184 33.1836ZM109.777 47V48H110.508L110.73 47.3038L109.777 47ZM105.699 47L104.761 46.6528L104.263 48H105.699V47ZM112.016 29.9375V28.9375H111.319L111.078 29.5903L112.016 29.9375ZM114.594 29.9375L115.586 30.0629L115.728 28.9375H114.594V29.9375ZM117.84 47L116.887 47.3046L117.11 48H117.84V47ZM113.422 33.1836L112.432 33.323L112.443 33.4072L112.469 33.4882L113.422 33.1836ZM112.965 29.9375V28.9375H111.814L111.975 30.0769L112.965 29.9375ZM115.578 29.9375L116.516 29.5892L116.273 28.9375H115.578V29.9375ZM121.918 47V48H123.356L122.855 46.6517L121.918 47ZM117.652 40.6484H118.652V39.6484H117.652V40.6484ZM117.652 43.6016V44.6016H118.652V43.6016H117.652ZM108.758 43.6016H107.758V44.6016H108.758V43.6016ZM108.758 40.6484V39.6484H107.758V40.6484H108.758ZM113.231 32.8798L108.825 46.6962L110.73 47.3038L115.136 33.4874L113.231 32.8798ZM109.777 46H105.699V48H109.777V46ZM106.637 47.3472L112.953 30.2847L111.078 29.5903L104.761 46.6528L106.637 47.3472ZM112.016 30.9375H114.594V28.9375H112.016V30.9375ZM113.602 29.8121L113.191 33.0582L115.176 33.309L115.586 30.0629L113.602 29.8121ZM118.792 46.6954L114.374 32.879L112.469 33.4882L116.887 47.3046L118.792 46.6954ZM114.412 33.0442L113.955 29.7981L111.975 30.0769L112.432 33.323L114.412 33.0442ZM112.965 30.9375H115.578V28.9375H112.965V30.9375ZM114.641 30.2858L120.981 47.3483L122.855 46.6517L116.516 29.5892L114.641 30.2858ZM121.918 46H117.84V48H121.918V46ZM116.652 40.6484V43.6016H118.652V40.6484H116.652ZM117.652 42.6016H108.758V44.6016H117.652V42.6016ZM109.758 43.6016V40.6484H107.758V43.6016H109.758ZM108.758 41.6484H117.652V39.6484H108.758V41.6484ZM134.469 44.0469H135.469V43.0469H134.469V44.0469ZM134.469 47V48H135.469V47H134.469ZM125.855 47H124.855V48H125.855V47ZM125.855 44.0469V43.0469H124.855V44.0469H125.855ZM127.156 29.9375H128.156V28.9375H127.156V29.9375ZM127.156 47V48H128.156V47H127.156ZM123.336 47H122.336V48H123.336V47ZM123.336 29.9375V28.9375H122.336V29.9375H123.336ZM133.469 44.0469V47H135.469V44.0469H133.469ZM134.469 46H125.855V48H134.469V46ZM126.855 47V44.0469H124.855V47H126.855ZM125.855 45.0469H134.469V43.0469H125.855V45.0469ZM126.156 29.9375V47H128.156V29.9375H126.156ZM127.156 46H123.336V48H127.156V46ZM124.336 47V29.9375H122.336V47H124.336ZM123.336 30.9375H127.156V28.9375H123.336V30.9375ZM147.477 44.0469H148.477V43.0469H147.477V44.0469ZM147.477 47V48H148.477V47H147.477ZM138.863 47H137.863V48H138.863V47ZM138.863 44.0469V43.0469H137.863V44.0469H138.863ZM140.164 29.9375H141.164V28.9375H140.164V29.9375ZM140.164 47V48H141.164V47H140.164ZM136.344 47H135.344V48H136.344V47ZM136.344 29.9375V28.9375H135.344V29.9375H136.344ZM146.477 44.0469V47H148.477V44.0469H146.477ZM147.477 46H138.863V48H147.477V46ZM139.863 47V44.0469H137.863V47H139.863ZM138.863 45.0469H147.477V43.0469H138.863V45.0469ZM139.164 29.9375V47H141.164V29.9375H139.164ZM140.164 46H136.344V48H140.164V46ZM137.344 47V29.9375H135.344V47H137.344ZM136.344 30.9375H140.164V28.9375H136.344V30.9375ZM160.953 44.0469H161.953V43.0469H160.953V44.0469ZM160.953 47V48H161.953V47H160.953ZM151.871 47H150.871V48H151.871V47ZM151.871 44.0469V43.0469H150.871V44.0469H151.871ZM153.172 29.9375H154.172V28.9375H153.172V29.9375ZM153.172 47V48H154.172V47H153.172ZM149.352 47H148.352V48H149.352V47ZM149.352 29.9375V28.9375H148.352V29.9375H149.352ZM159.781 36.8047H160.781V35.8047H159.781V36.8047ZM159.781 39.6641V40.6641H160.781V39.6641H159.781ZM151.871 39.6641H150.871V40.6641H151.871V39.6641ZM151.871 36.8047V35.8047H150.871V36.8047H151.871ZM160.965 29.9375H161.965V28.9375H160.965V29.9375ZM160.965 32.9023V33.9023H161.965V32.9023H160.965ZM151.871 32.9023H150.871V33.9023H151.871V32.9023ZM151.871 29.9375V28.9375H150.871V29.9375H151.871ZM159.953 44.0469V47H161.953V44.0469H159.953ZM160.953 46H151.871V48H160.953V46ZM152.871 47V44.0469H150.871V47H152.871ZM151.871 45.0469H160.953V43.0469H151.871V45.0469ZM152.172 29.9375V47H154.172V29.9375H152.172ZM153.172 46H149.352V48H153.172V46ZM150.352 47V29.9375H148.352V47H150.352ZM149.352 30.9375H153.172V28.9375H149.352V30.9375ZM158.781 36.8047V39.6641H160.781V36.8047H158.781ZM159.781 38.6641H151.871V40.6641H159.781V38.6641ZM152.871 39.6641V36.8047H150.871V39.6641H152.871ZM151.871 37.8047H159.781V35.8047H151.871V37.8047ZM159.965 29.9375V32.9023H161.965V29.9375H159.965ZM160.965 31.9023H151.871V33.9023H160.965V31.9023ZM152.871 32.9023V29.9375H150.871V32.9023H152.871ZM151.871 30.9375H160.965V28.9375H151.871V30.9375ZM176.902 29.9375H177.902V28.9375H176.902V29.9375ZM176.902 47V48H177.902V47H176.902ZM173.094 47L172.23 47.5046L172.52 48H173.094V47ZM166.648 35.9727L167.512 35.468L165.648 32.28V35.9727H166.648ZM166.648 47V48H167.648V47H166.648ZM162.828 47H161.828V48H162.828V47ZM162.828 29.9375V28.9375H161.828V29.9375H162.828ZM166.648 29.9375L167.511 29.4322L167.222 28.9375H166.648V29.9375ZM173.105 40.9648L172.243 41.4701L174.105 44.6517V40.9648H173.105ZM173.105 29.9375V28.9375H172.105V29.9375H173.105ZM175.902 29.9375V47H177.902V29.9375H175.902ZM176.902 46H173.094V48H176.902V46ZM173.957 46.4954L167.512 35.468L165.785 36.4773L172.23 47.5046L173.957 46.4954ZM165.648 35.9727V47H167.648V35.9727H165.648ZM166.648 46H162.828V48H166.648V46ZM163.828 47V29.9375H161.828V47H163.828ZM162.828 30.9375H166.648V28.9375H162.828V30.9375ZM165.785 30.4428L172.243 41.4701L173.968 40.4595L167.511 29.4322L165.785 30.4428ZM174.105 40.9648V29.9375H172.105V40.9648H174.105ZM173.105 30.9375H176.902V28.9375H173.105V30.9375ZM193.473 37.9883H194.473V36.9883H193.473V37.9883ZM193.473 44.8672L194.224 45.527L194.473 45.2439V44.8672H193.473ZM192.184 45.8984L191.647 45.0543L191.642 45.0576L192.184 45.8984ZM189.992 46.8477L190.27 47.8083L190.278 47.8059L189.992 46.8477ZM183.758 46.6953L183.385 47.6233L183.392 47.626L183.758 46.6953ZM181.402 45.0898L180.668 45.7681L180.671 45.7722L181.402 45.0898ZM179.879 42.4883L178.933 42.8132L178.935 42.8196L179.879 42.4883ZM181.367 31.8594L182.106 32.5329L182.11 32.5288L181.367 31.8594ZM190.32 30.4297L189.867 31.3212L189.873 31.3241L190.32 30.4297ZM192.523 32.4453L191.659 32.9482L191.663 32.954L192.523 32.4453ZM193.461 35.4102V36.4102H194.571L194.455 35.3058L193.461 35.4102ZM189.781 35.4102L188.79 35.5459L188.909 36.4102H189.781V35.4102ZM189.312 33.9336L188.435 34.4136L188.439 34.4199L188.442 34.4262L189.312 33.9336ZM188.34 32.9844L187.867 33.8654L187.873 33.8688L187.88 33.8721L188.34 32.9844ZM185.234 32.9844L185.688 33.8756L185.694 33.8724L185.234 32.9844ZM183.465 35.6445L184.438 35.8762L184.438 35.8736L183.465 35.6445ZM183.465 41.2812L182.491 41.5103L182.494 41.5211L183.465 41.2812ZM184.18 42.9453L183.361 43.5198L183.366 43.5266L184.18 42.9453ZM185.363 43.9414L184.934 44.8446L184.94 44.8472L185.363 43.9414ZM188.316 44.1641L188.538 45.1392L188.549 45.1368L188.559 45.1342L188.316 44.1641ZM189.16 43.8477L189.656 44.7159L189.668 44.7093L189.679 44.7024L189.16 43.8477ZM189.652 43.4844L190.359 44.1915L190.652 43.8986V43.4844H189.652ZM189.652 40.6484H190.652V39.6484H189.652V40.6484ZM186.617 40.6484H185.617V41.6484H186.617V40.6484ZM186.617 37.9883V36.9883H185.617V37.9883H186.617ZM192.473 37.9883V44.8672H194.473V37.9883H192.473ZM192.721 44.2074C192.529 44.4266 192.188 44.7112 191.647 45.0543L192.72 46.7426C193.336 46.3513 193.854 45.9484 194.224 45.527L192.721 44.2074ZM191.642 45.0576C191.174 45.3589 190.538 45.6415 189.706 45.8894L190.278 47.8059C191.228 47.5226 192.052 47.1723 192.725 46.7392L191.642 45.0576ZM189.714 45.8871C188.938 46.1117 187.974 46.2344 186.805 46.2344V48.2344C188.104 48.2344 189.265 48.0992 190.27 47.8082L189.714 45.8871ZM186.805 46.2344C185.796 46.2344 184.906 46.0724 184.124 45.7647L183.392 47.626C184.437 48.037 185.579 48.2344 186.805 48.2344V46.2344ZM184.131 45.7674C183.349 45.4535 182.687 45.0009 182.133 44.4075L180.671 45.7722C181.43 46.5851 182.338 47.2028 183.385 47.6232L184.131 45.7674ZM182.137 44.4116C181.584 43.8123 181.142 43.0673 180.822 42.157L178.935 42.8196C179.334 43.9561 179.908 44.9455 180.668 45.7681L182.137 44.4116ZM180.825 42.1634C180.516 41.2646 180.352 40.2059 180.352 38.9727H178.352C178.352 40.38 178.539 41.6651 178.933 42.8132L180.825 42.1634ZM180.352 38.9727V37.9648H178.352V38.9727H180.352ZM180.352 37.9648C180.352 36.7316 180.516 35.6729 180.825 34.7741L178.933 34.1243C178.539 35.2724 178.352 36.5575 178.352 37.9648H180.352ZM180.825 34.7741C181.138 33.862 181.57 33.1221 182.106 32.5329L180.628 31.1859C179.884 32.0029 179.323 32.9895 178.933 34.1243L180.825 34.7741ZM182.11 32.5288C182.651 31.928 183.291 31.4757 184.036 31.1655L183.268 29.3189C182.248 29.7431 181.364 30.3689 180.624 31.19L182.11 32.5288ZM184.036 31.1655C184.784 30.8546 185.628 30.6914 186.582 30.6914V28.6914C185.396 28.6914 184.287 28.8954 183.268 29.3189L184.036 31.1655ZM186.582 30.6914C188.008 30.6914 189.084 30.9231 189.867 31.3212L190.773 29.5382C189.619 28.9519 188.203 28.6914 186.582 28.6914V30.6914ZM189.873 31.3241C190.684 31.7295 191.266 32.2722 191.659 32.9482L193.388 31.9424C192.781 30.8997 191.894 30.0986 190.768 29.5353L189.873 31.3241ZM191.663 32.954C192.089 33.6751 192.362 34.5222 192.466 35.5145L194.455 35.3058C194.325 34.0638 193.974 32.9343 193.384 31.9366L191.663 32.954ZM193.461 34.4102H189.781V36.4102H193.461V34.4102ZM190.772 35.2744C190.68 34.6043 190.491 33.9858 190.183 33.441L188.442 34.4262C188.603 34.7095 188.726 35.0754 188.79 35.5459L190.772 35.2744ZM190.19 33.4536C189.867 32.8639 189.397 32.4062 188.8 32.0966L187.88 33.8721C188.126 34.0001 188.305 34.1751 188.435 34.4136L190.19 33.4536ZM188.813 32.1034C188.199 31.7736 187.473 31.6445 186.699 31.6445V33.6445C187.269 33.6445 187.637 33.742 187.867 33.8654L188.813 32.1034ZM186.699 31.6445C186.015 31.6445 185.367 31.7895 184.775 32.0964L185.694 33.8724C185.977 33.7262 186.305 33.6445 186.699 33.6445V31.6445ZM184.781 32.0932C184.182 32.3981 183.694 32.8538 183.312 33.4258L184.977 34.5352C185.189 34.2166 185.428 34.0081 185.688 33.8755L184.781 32.0932ZM183.312 33.4258C182.934 33.9934 182.668 34.6658 182.491 35.4155L184.438 35.8736C184.574 35.2952 184.761 34.8582 184.977 34.5352L183.312 33.4258ZM182.492 35.4129C182.313 36.1636 182.23 37.0101 182.23 37.9414H184.23C184.23 37.1227 184.304 36.438 184.438 35.8762L182.492 35.4129ZM182.23 37.9414V38.9727H184.23V37.9414H182.23ZM182.23 38.9727C182.23 39.9043 182.313 40.7535 182.491 41.5103L184.438 41.0522C184.304 40.4808 184.23 39.791 184.23 38.9727H182.23ZM182.494 41.5211C182.68 42.2755 182.962 42.951 183.361 43.5197L184.998 42.3709C184.772 42.049 184.577 41.6152 184.436 41.0414L182.494 41.5211ZM183.366 43.5266C183.775 44.0995 184.301 44.5436 184.934 44.8445L185.793 43.0383C185.472 42.8861 185.209 42.6661 184.993 42.3641L183.366 43.5266ZM184.94 44.8472C185.58 45.1469 186.292 45.2812 187.051 45.2812V43.2812C186.528 43.2812 186.115 43.1891 185.787 43.0356L184.94 44.8472ZM187.051 45.2812C187.597 45.2812 188.098 45.2391 188.538 45.1392L188.095 43.1889C187.847 43.2453 187.505 43.2812 187.051 43.2812V45.2812ZM188.559 45.1342C188.959 45.0343 189.333 44.9006 189.656 44.7159L188.664 42.9794C188.55 43.0448 188.362 43.1219 188.074 43.1939L188.559 45.1342ZM189.679 44.7024C189.928 44.5513 190.169 44.3821 190.359 44.1915L188.945 42.7773C188.917 42.8054 188.83 42.8783 188.641 42.9929L189.679 44.7024ZM190.652 43.4844V40.6484H188.652V43.4844H190.652ZM189.652 39.6484H186.617V41.6484H189.652V39.6484ZM187.617 40.6484V37.9883H185.617V40.6484H187.617ZM186.617 38.9883H193.473V36.9883H186.617V38.9883ZM207.688 44.0469H208.688V43.0469H207.688V44.0469ZM207.688 47V48H208.688V47H207.688ZM198.605 47H197.605V48H198.605V47ZM198.605 44.0469V43.0469H197.605V44.0469H198.605ZM199.906 29.9375H200.906V28.9375H199.906V29.9375ZM199.906 47V48H200.906V47H199.906ZM196.086 47H195.086V48H196.086V47ZM196.086 29.9375V28.9375H195.086V29.9375H196.086ZM206.516 36.8047H207.516V35.8047H206.516V36.8047ZM206.516 39.6641V40.6641H207.516V39.6641H206.516ZM198.605 39.6641H197.605V40.6641H198.605V39.6641ZM198.605 36.8047V35.8047H197.605V36.8047H198.605ZM207.699 29.9375H208.699V28.9375H207.699V29.9375ZM207.699 32.9023V33.9023H208.699V32.9023H207.699ZM198.605 32.9023H197.605V33.9023H198.605V32.9023ZM198.605 29.9375V28.9375H197.605V29.9375H198.605ZM206.688 44.0469V47H208.688V44.0469H206.688ZM207.688 46H198.605V48H207.688V46ZM199.605 47V44.0469H197.605V47H199.605ZM198.605 45.0469H207.688V43.0469H198.605V45.0469ZM198.906 29.9375V47H200.906V29.9375H198.906ZM199.906 46H196.086V48H199.906V46ZM197.086 47V29.9375H195.086V47H197.086ZM196.086 30.9375H199.906V28.9375H196.086V30.9375ZM205.516 36.8047V39.6641H207.516V36.8047H205.516ZM206.516 38.6641H198.605V40.6641H206.516V38.6641ZM199.605 39.6641V36.8047H197.605V39.6641H199.605ZM198.605 37.8047H206.516V35.8047H198.605V37.8047ZM206.699 29.9375V32.9023H208.699V29.9375H206.699ZM207.699 31.9023H198.605V33.9023H207.699V31.9023ZM199.605 32.9023V29.9375H197.605V32.9023H199.605ZM198.605 30.9375H207.699V28.9375H198.605V30.9375ZM217.367 29.9375V28.9375H215.957L216.423 30.2681L217.367 29.9375ZM220.531 29.9375L221.479 29.6188L221.25 28.9375H220.531V29.9375ZM224.633 42.1367L223.685 42.4554L224.634 45.2786L225.581 42.4546L224.633 42.1367ZM228.723 29.9375V28.9375H228.003L227.775 29.6196L228.723 29.9375ZM231.887 29.9375L232.83 30.2681L233.297 28.9375H231.887V29.9375ZM225.91 47V48H226.619L226.854 47.3306L225.91 47ZM223.344 47L222.4 47.3306L222.634 48H223.344V47ZM215.539 29.9375V28.9375H214.539V29.9375H215.539ZM218.762 29.9375L219.761 29.8903L219.716 28.9375H218.762V29.9375ZM219.359 42.582H220.359V42.5584L220.358 42.5348L219.359 42.582ZM219.359 47V48H220.359V47H219.359ZM215.539 47H214.539V48H215.539V47ZM230.492 29.9375V28.9375H229.538L229.493 29.8903L230.492 29.9375ZM233.727 29.9375H234.727V28.9375H233.727V29.9375ZM233.727 47V48H234.727V47H233.727ZM229.895 47H228.895V48H229.895V47ZM229.895 42.582L228.896 42.5348L228.895 42.5584V42.582H229.895ZM217.367 30.9375H220.531V28.9375H217.367V30.9375ZM219.583 30.2562L223.685 42.4554L225.581 41.818L221.479 29.6188L219.583 30.2562ZM225.581 42.4546L229.671 30.2554L227.775 29.6196L223.685 41.8189L225.581 42.4546ZM228.723 30.9375H231.887V28.9375H228.723V30.9375ZM230.943 29.6069L224.966 46.6694L226.854 47.3306L232.83 30.2681L230.943 29.6069ZM225.91 46H223.344V48H225.91V46ZM224.288 46.6694L218.311 29.6069L216.423 30.2681L222.4 47.3306L224.288 46.6694ZM215.539 30.9375H218.762V28.9375H215.539V30.9375ZM217.763 29.9847L218.36 42.6292L220.358 42.5348L219.761 29.8903L217.763 29.9847ZM218.359 42.582V47H220.359V42.582H218.359ZM219.359 46H215.539V48H219.359V46ZM216.539 47V29.9375H214.539V47H216.539ZM230.492 30.9375H233.727V28.9375H230.492V30.9375ZM232.727 29.9375V47H234.727V29.9375H232.727ZM233.727 46H229.895V48H233.727V46ZM230.895 47V42.582H228.895V47H230.895ZM230.893 42.6292L231.491 29.9847L229.493 29.8903L228.896 42.5348L230.893 42.6292ZM243.863 33.1836L244.816 33.4874L244.844 33.4L244.855 33.309L243.863 33.1836ZM239.457 47V48H240.188L240.41 47.3038L239.457 47ZM235.379 47L234.441 46.6528L233.942 48H235.379V47ZM241.695 29.9375V28.9375H240.999L240.758 29.5903L241.695 29.9375ZM244.273 29.9375L245.266 30.0629L245.408 28.9375H244.273V29.9375ZM247.52 47L246.567 47.3046L246.789 48H247.52V47ZM243.102 33.1836L242.111 33.323L242.123 33.4072L242.149 33.4882L243.102 33.1836ZM242.645 29.9375V28.9375H241.494L241.654 30.0769L242.645 29.9375ZM245.258 29.9375L246.195 29.5892L245.953 28.9375H245.258V29.9375ZM251.598 47V48H253.036L252.535 46.6517L251.598 47ZM247.332 40.6484H248.332V39.6484H247.332V40.6484ZM247.332 43.6016V44.6016H248.332V43.6016H247.332ZM238.438 43.6016H237.438V44.6016H238.438V43.6016ZM238.438 40.6484V39.6484H237.438V40.6484H238.438ZM242.911 32.8798L238.504 46.6962L240.41 47.3038L244.816 33.4874L242.911 32.8798ZM239.457 46H235.379V48H239.457V46ZM236.317 47.3472L242.633 30.2847L240.758 29.5903L234.441 46.6528L236.317 47.3472ZM241.695 30.9375H244.273V28.9375H241.695V30.9375ZM243.281 29.8121L242.871 33.0582L244.855 33.309L245.266 30.0629L243.281 29.8121ZM248.472 46.6954L244.054 32.879L242.149 33.4882L246.567 47.3046L248.472 46.6954ZM244.092 33.0442L243.635 29.7981L241.654 30.0769L242.111 33.323L244.092 33.0442ZM242.645 30.9375H245.258V28.9375H242.645V30.9375ZM244.32 30.2858L250.66 47.3483L252.535 46.6517L246.195 29.5892L244.32 30.2858ZM251.598 46H247.52V48H251.598V46ZM246.332 40.6484V43.6016H248.332V40.6484H246.332ZM247.332 42.6016H238.438V44.6016H247.332V42.6016ZM239.438 43.6016V40.6484H237.438V43.6016H239.438ZM238.438 41.6484H247.332V39.6484H238.438V41.6484ZM255.453 41.0703H254.453V42.0703H255.453V41.0703ZM255.453 38.1055V37.1055H254.453V38.1055H255.453ZM261.266 37.7891L260.79 36.9091L260.783 36.9132L261.266 37.7891ZM262.121 36.9219L261.227 36.4746L261.223 36.4823L262.121 36.9219ZM262.121 34.3086L261.201 34.7005L261.205 34.7108L261.21 34.7211L262.121 34.3086ZM261.266 33.2891L260.707 34.1185L260.715 34.1237L261.266 33.2891ZM256.836 32.9023V31.9023H255.836V32.9023H256.836ZM256.836 47V48H257.836V47H256.836ZM253.016 47H252.016V48H253.016V47ZM253.016 29.9375V28.9375H252.016V29.9375H253.016ZM263.234 30.6758L262.781 31.5673L262.784 31.5688L263.234 30.6758ZM265.473 32.7031L264.615 33.2177L264.621 33.2268L265.473 32.7031ZM265.473 38.5039L264.632 37.9623L264.628 37.9681L265.473 38.5039ZM263.234 40.4023L263.652 41.311L263.655 41.3095L263.234 40.4023ZM259.742 40.0703H255.453V42.0703H259.742V40.0703ZM256.453 41.0703V38.1055H254.453V41.0703H256.453ZM255.453 39.1055H259.742V37.1055H255.453V39.1055ZM259.742 39.1055C260.473 39.1055 261.166 38.9857 261.748 38.6649L260.783 36.9132C260.6 37.0143 260.277 37.1055 259.742 37.1055V39.1055ZM261.741 38.669C262.298 38.3679 262.74 37.9322 263.019 37.3614L261.223 36.4823C261.143 36.6459 261.014 36.7883 260.79 36.9092L261.741 38.669ZM263.016 37.3691C263.28 36.8396 263.402 36.2617 263.402 35.6562H261.402C261.402 35.9883 261.337 36.2542 261.227 36.4747L263.016 37.3691ZM263.402 35.6562C263.402 35.0391 263.282 34.4481 263.032 33.8961L261.21 34.7211C261.335 34.9972 261.402 35.3046 261.402 35.6562H263.402ZM263.041 33.9167C262.783 33.3103 262.367 32.818 261.816 32.4545L260.715 34.1237C260.945 34.2757 261.1 34.4631 261.201 34.7005L263.041 33.9167ZM261.824 32.4596C261.225 32.0564 260.502 31.9023 259.742 31.9023V33.9023C260.248 33.9023 260.54 34.0061 260.707 34.1185L261.824 32.4596ZM259.742 31.9023H256.836V33.9023H259.742V31.9023ZM255.836 32.9023V47H257.836V32.9023H255.836ZM256.836 46H253.016V48H256.836V46ZM254.016 47V29.9375H252.016V47H254.016ZM253.016 30.9375H259.742V28.9375H253.016V30.9375ZM259.742 30.9375C260.983 30.9375 261.984 31.1621 262.781 31.5673L263.687 29.7842C262.547 29.2051 261.22 28.9375 259.742 28.9375V30.9375ZM262.784 31.5688C263.608 31.9839 264.206 32.5351 264.615 33.2176L266.33 32.1886C265.708 31.1524 264.814 30.352 263.684 29.7828L262.784 31.5688ZM264.621 33.2268C265.038 33.905 265.258 34.6967 265.258 35.6328H267.258C267.258 34.3658 266.955 33.2043 266.325 32.1795L264.621 33.2268ZM265.258 35.6328C265.258 36.5699 265.037 37.333 264.632 37.9623L266.313 39.0455C266.955 38.0498 267.258 36.8989 267.258 35.6328H265.258ZM264.628 37.9681C264.227 38.6001 263.638 39.1129 262.813 39.4952L263.655 41.3095C264.784 40.7856 265.687 40.0328 266.317 39.0397L264.628 37.9681ZM262.817 39.4937C262.01 39.8647 260.996 40.0703 259.742 40.0703V42.0703C261.207 42.0703 262.521 41.8306 263.652 41.3109L262.817 39.4937Z" fill="white"/>
<defs>
<filter id="filter0_d_179_480" x="0" y="0" width="294" height="83" filterUnits="userSpaceOnUse" color-interpolation-filters="sRGB">
<feFlood flood-opacity="0" result="BackgroundImageFix"/>
<feColorMatrix in="SourceAlpha" type="matrix" values="0 0 0 0 0 0 0 0 0 0 0 0 0 0 0 0 0 0 127 0" result="hardAlpha"/>
<feOffset dy="4"/>
<feComposite in2="hardAlpha" operator="out"/>
<feColorMatrix type="matrix" values="0 0 0 0 0 0 0 0 0 0 0 0 0 0 0 0 0 0 0.25 0"/>
<feBlend mode="normal" in2="BackgroundImageFix" result="effect1_dropShadow_179_480"/>
<feBlend mode="normal" in="SourceGraphic" in2="effect1_dropShadow_179_480" result="shape"/>
</filter>
<linearGradient id="paint0_linear_179_480" x1="147" y1="0" x2="147" y2="89" gradientUnits="userSpaceOnUse">
<stop stop-color="#FCEA94"/>
<stop offset="1" stop-color="#FF9900"/>
</linearGradient>
<linearGradient id="paint1_linear_179_480" x1="147.152" y1="3" x2="147.152" y2="69" gradientUnits="userSpaceOnUse">
<stop stop-color="#FCEA94"/>
<stop offset="1" stop-color="#F1C700"/>
</linearGradient>
</defs>
</svg>
