<svg width="99" height="38" viewBox="0 0 99 38" fill="none" xmlns="http://www.w3.org/2000/svg">
<g filter="url(#filter0_d_192_1039)">
<path d="M0 18.5C0 9.93959 6.93959 3 15.5 3H83.3978C91.9582 3 98.8978 9.93959 98.8978 18.5C98.8978 27.0604 91.9582 34 83.3978 34H15.5C6.9396 34 0 27.0604 0 18.5Z" fill="url(#paint0_linear_192_1039)"/>
<path d="M1.5 18.5C1.5 10.768 7.76801 4.5 15.5 4.5H83.3978C91.1298 4.5 97.3978 10.768 97.3978 18.5C97.3978 26.232 91.1298 32.5 83.3978 32.5H15.5C7.76803 32.5 1.5 26.232 1.5 18.5Z" stroke="white" stroke-width="3"/>
</g>
<path d="M3.2998 15C3.2998 8.92487 8.22467 4 14.2998 4H84.6998C90.7749 4 95.6998 8.92487 95.6998 15C95.6998 21.0751 90.7749 26 84.6998 26H14.2998C8.22469 26 3.2998 21.0751 3.2998 15Z" fill="url(#paint1_linear_192_1039)"/>
<path fill-rule="evenodd" clip-rule="evenodd" d="M42.1268 4.17725H14.2117C8.18548 4.17725 3.30029 9.06244 3.30029 15.0886C3.30029 21.1148 8.18548 26 14.2117 26H56.747L42.1268 4.17725Z" fill="#E6AAFB"/>
<path d="M20.2324 17.2227H21.6973C21.6504 17.7812 21.4941 18.2793 21.2285 18.7168C20.9629 19.1504 20.5898 19.4922 20.1094 19.7422C19.6289 19.9922 19.0449 20.1172 18.3574 20.1172C17.8301 20.1172 17.3555 20.0234 16.9336 19.8359C16.5117 19.6445 16.1504 19.375 15.8496 19.0273C15.5488 18.6758 15.3184 18.252 15.1582 17.7559C15.002 17.2598 14.9238 16.7051 14.9238 16.0918V15.3828C14.9238 14.7695 15.0039 14.2148 15.1641 13.7188C15.3281 13.2227 15.5625 12.7988 15.8672 12.4473C16.1719 12.0918 16.5371 11.8203 16.9629 11.6328C17.3926 11.4453 17.875 11.3516 18.4102 11.3516C19.0898 11.3516 19.6641 11.4766 20.1328 11.7266C20.6016 11.9766 20.9648 12.3223 21.2227 12.7637C21.4844 13.2051 21.6445 13.7109 21.7031 14.2812H20.2383C20.1992 13.9141 20.1133 13.5996 19.9805 13.3379C19.8516 13.0762 19.6602 12.877 19.4062 12.7402C19.1523 12.5996 18.8203 12.5293 18.4102 12.5293C18.0742 12.5293 17.7812 12.5918 17.5312 12.7168C17.2812 12.8418 17.0723 13.0254 16.9043 13.2676C16.7363 13.5098 16.6094 13.8086 16.5234 14.1641C16.4414 14.5156 16.4004 14.918 16.4004 15.3711V16.0918C16.4004 16.5215 16.4375 16.9121 16.5117 17.2637C16.5898 17.6113 16.707 17.9102 16.8633 18.1602C17.0234 18.4102 17.2266 18.6035 17.4727 18.7402C17.7188 18.877 18.0137 18.9453 18.3574 18.9453C18.7754 18.9453 19.1133 18.8789 19.3711 18.7461C19.6328 18.6133 19.8301 18.4199 19.9629 18.166C20.0996 17.9082 20.1895 17.5938 20.2324 17.2227ZM28.377 18.834V20H24.0938V18.834H28.377ZM24.5039 11.4688V20H23.0332V11.4688H24.5039ZM35.0977 18.834V20H30.5684V18.834H35.0977ZM30.9844 11.4688V20H29.5137V11.4688H30.9844ZM34.5059 15.0312V16.1797H30.5684V15.0312H34.5059ZM35.0684 11.4688V12.6406H30.5684V11.4688H35.0684ZM39.6211 12.6055L37.0723 20H35.5312L38.7422 11.4688H39.7266L39.6211 12.6055ZM41.7539 20L39.1992 12.6055L39.0879 11.4688H40.0781L43.3008 20H41.7539ZM41.6309 16.8359V18.002H36.9902V16.8359H41.6309ZM44.2559 11.4688H47.2734C47.9219 11.4688 48.4746 11.5664 48.9316 11.7617C49.3887 11.957 49.7383 12.2461 49.9805 12.6289C50.2266 13.0078 50.3496 13.4766 50.3496 14.0352C50.3496 14.4609 50.2715 14.8359 50.1152 15.1602C49.959 15.4844 49.7383 15.7578 49.4531 15.9805C49.168 16.1992 48.8281 16.3691 48.4336 16.4902L47.9883 16.707H45.2754L45.2637 15.541H47.2969C47.6484 15.541 47.9414 15.4785 48.1758 15.3535C48.4102 15.2285 48.5859 15.0586 48.7031 14.8438C48.8242 14.625 48.8848 14.3789 48.8848 14.1055C48.8848 13.8086 48.8262 13.5508 48.709 13.332C48.5957 13.1094 48.4199 12.9395 48.1816 12.8223C47.9434 12.7012 47.6406 12.6406 47.2734 12.6406H45.7266V20H44.2559V11.4688ZM49.125 20L47.1211 16.168L48.6621 16.1621L50.6953 19.9238V20H49.125ZM59.8418 17.2227H61.3066C61.2598 17.7812 61.1035 18.2793 60.8379 18.7168C60.5723 19.1504 60.1992 19.4922 59.7188 19.7422C59.2383 19.9922 58.6543 20.1172 57.9668 20.1172C57.4395 20.1172 56.9648 20.0234 56.543 19.8359C56.1211 19.6445 55.7598 19.375 55.459 19.0273C55.1582 18.6758 54.9277 18.252 54.7676 17.7559C54.6113 17.2598 54.5332 16.7051 54.5332 16.0918V15.3828C54.5332 14.7695 54.6133 14.2148 54.7734 13.7188C54.9375 13.2227 55.1719 12.7988 55.4766 12.4473C55.7812 12.0918 56.1465 11.8203 56.5723 11.6328C57.002 11.4453 57.4844 11.3516 58.0195 11.3516C58.6992 11.3516 59.2734 11.4766 59.7422 11.7266C60.2109 11.9766 60.5742 12.3223 60.832 12.7637C61.0938 13.2051 61.2539 13.7109 61.3125 14.2812H59.8477C59.8086 13.9141 59.7227 13.5996 59.5898 13.3379C59.4609 13.0762 59.2695 12.877 59.0156 12.7402C58.7617 12.5996 58.4297 12.5293 58.0195 12.5293C57.6836 12.5293 57.3906 12.5918 57.1406 12.7168C56.8906 12.8418 56.6816 13.0254 56.5137 13.2676C56.3457 13.5098 56.2188 13.8086 56.1328 14.1641C56.0508 14.5156 56.0098 14.918 56.0098 15.3711V16.0918C56.0098 16.5215 56.0469 16.9121 56.1211 17.2637C56.1992 17.6113 56.3164 17.9102 56.4727 18.1602C56.6328 18.4102 56.8359 18.6035 57.082 18.7402C57.3281 18.877 57.623 18.9453 57.9668 18.9453C58.3848 18.9453 58.7227 18.8789 58.9805 18.7461C59.2422 18.6133 59.4395 18.4199 59.5723 18.166C59.709 17.9082 59.7988 17.5938 59.8418 17.2227ZM69.4453 15.5V15.9688C69.4453 16.6133 69.3613 17.1914 69.1934 17.7031C69.0254 18.2148 68.7852 18.6504 68.4727 19.0098C68.1641 19.3691 67.793 19.6445 67.3594 19.8359C66.9258 20.0234 66.4453 20.1172 65.918 20.1172C65.3945 20.1172 64.916 20.0234 64.4824 19.8359C64.0527 19.6445 63.6797 19.3691 63.3633 19.0098C63.0469 18.6504 62.8008 18.2148 62.625 17.7031C62.4531 17.1914 62.3672 16.6133 62.3672 15.9688V15.5C62.3672 14.8555 62.4531 14.2793 62.625 13.7715C62.7969 13.2598 63.0391 12.8242 63.3516 12.4648C63.668 12.1016 64.041 11.8262 64.4707 11.6387C64.9043 11.4473 65.3828 11.3516 65.9062 11.3516C66.4336 11.3516 66.9141 11.4473 67.3477 11.6387C67.7812 11.8262 68.1543 12.1016 68.4668 12.4648C68.7793 12.8242 69.0195 13.2598 69.1875 13.7715C69.3594 14.2793 69.4453 14.8555 69.4453 15.5ZM67.9746 15.9688V15.4883C67.9746 15.0117 67.9277 14.5918 67.834 14.2285C67.7441 13.8613 67.6094 13.5547 67.4297 13.3086C67.2539 13.0586 67.0371 12.8711 66.7793 12.7461C66.5215 12.6172 66.2305 12.5527 65.9062 12.5527C65.582 12.5527 65.293 12.6172 65.0391 12.7461C64.7852 12.8711 64.5684 13.0586 64.3887 13.3086C64.2129 13.5547 64.0781 13.8613 63.9844 14.2285C63.8906 14.5918 63.8438 15.0117 63.8438 15.4883V15.9688C63.8438 16.4453 63.8906 16.8672 63.9844 17.2344C64.0781 17.6016 64.2148 17.9121 64.3945 18.166C64.5781 18.416 64.7969 18.6055 65.0508 18.7344C65.3047 18.8594 65.5938 18.9219 65.918 18.9219C66.2461 18.9219 66.5371 18.8594 66.791 18.7344C67.0449 18.6055 67.2598 18.416 67.4355 18.166C67.6113 17.9121 67.7441 17.6016 67.834 17.2344C67.9277 16.8672 67.9746 16.4453 67.9746 15.9688ZM73.3945 20H71.5723L71.584 18.834H73.3945C73.9219 18.834 74.3633 18.7188 74.7188 18.4883C75.0781 18.2578 75.3477 17.9277 75.5273 17.498C75.7109 17.0684 75.8027 16.5566 75.8027 15.9629V15.5C75.8027 15.0391 75.75 14.6309 75.6445 14.2754C75.543 13.9199 75.3906 13.6211 75.1875 13.3789C74.9883 13.1367 74.7422 12.9531 74.4492 12.8281C74.1602 12.7031 73.8262 12.6406 73.4473 12.6406H71.5371V11.4688H73.4473C74.0137 11.4688 74.5312 11.5645 75 11.7559C75.4688 11.9434 75.873 12.2148 76.2129 12.5703C76.5566 12.9258 76.8203 13.3516 77.0039 13.8477C77.1875 14.3438 77.2793 14.8984 77.2793 15.5117V15.9629C77.2793 16.5762 77.1875 17.1309 77.0039 17.627C76.8203 18.123 76.5566 18.5488 76.2129 18.9043C75.8691 19.2559 75.459 19.5273 74.9824 19.7188C74.5098 19.9062 73.9805 20 73.3945 20ZM72.3867 11.4688V20H70.916V11.4688H72.3867ZM84.3398 18.834V20H79.8105V18.834H84.3398ZM80.2266 11.4688V20H78.7559V11.4688H80.2266ZM83.748 15.0312V16.1797H79.8105V15.0312H83.748ZM84.3105 11.4688V12.6406H79.8105V11.4688H84.3105Z" fill="black"/>
<defs>
<filter id="filter0_d_192_1039" x="0" y="3" width="98.8979" height="35" filterUnits="userSpaceOnUse" color-interpolation-filters="sRGB">
<feFlood flood-opacity="0" result="BackgroundImageFix"/>
<feColorMatrix in="SourceAlpha" type="matrix" values="0 0 0 0 0 0 0 0 0 0 0 0 0 0 0 0 0 0 127 0" result="hardAlpha"/>
<feOffset dy="4"/>
<feComposite in2="hardAlpha" operator="out"/>
<feColorMatrix type="matrix" values="0 0 0 0 0 0 0 0 0 0 0 0 0 0 0 0 0 0 0.25 0"/>
<feBlend mode="normal" in2="BackgroundImageFix" result="effect1_dropShadow_192_1039"/>
<feBlend mode="normal" in="SourceGraphic" in2="effect1_dropShadow_192_1039" result="shape"/>
</filter>
<linearGradient id="paint0_linear_192_1039" x1="49.4489" y1="3" x2="49.4489" y2="59.8987" gradientUnits="userSpaceOnUse">
<stop stop-color="#AF71FE"/>
<stop offset="1" stop-color="#8000FF"/>
</linearGradient>
<linearGradient id="paint1_linear_192_1039" x1="49.4998" y1="4" x2="49.4998" y2="26" gradientUnits="userSpaceOnUse">
<stop stop-color="#E28EFF"/>
<stop offset="1" stop-color="#C41BFF"/>
</linearGradient>
</defs>
</svg>
