<svg width="296" height="683" viewBox="0 0 296 683" fill="none" xmlns="http://www.w3.org/2000/svg">
<g filter="url(#filter0_d_596_189)">
<path d="M4 35C4 15.67 19.67 0 39 0H275C284.389 0 292 7.61116 292 17V646C292 662.016 279.016 675 263 675H39C19.67 675 4 659.33 4 640V35Z" fill="url(#paint0_linear_596_189)" fill-opacity="0.5" shape-rendering="crispEdges"/>
</g>
<path d="M285 9.49997C282.6 5.09997 275.333 5.3333 272 5.99997C272 6.66664 274.043 7.15719 278.5 10.5C282.5 13.5 286.667 18.3333 287.5 21C287.667 19 287.4 13.9 285 9.49997Z" fill="white"/>
<rect x="10" y="334" width="4" height="172" rx="2" fill="white" fill-opacity="0.5"/>
<rect x="280" y="611" width="4" height="32" rx="2" fill="white" fill-opacity="0.5"/>
<rect x="224" y="10" width="4" height="43" rx="2" transform="rotate(-90 224 10)" fill="white" fill-opacity="0.5"/>
<defs>
<filter id="filter0_d_596_189" x="0" y="0" width="296" height="683" filterUnits="userSpaceOnUse" color-interpolation-filters="sRGB">
<feFlood flood-opacity="0" result="BackgroundImageFix"/>
<feColorMatrix in="SourceAlpha" type="matrix" values="0 0 0 0 0 0 0 0 0 0 0 0 0 0 0 0 0 0 127 0" result="hardAlpha"/>
<feOffset dy="4"/>
<feGaussianBlur stdDeviation="2"/>
<feComposite in2="hardAlpha" operator="out"/>
<feColorMatrix type="matrix" values="0 0 0 0 0 0 0 0 0 0 0 0 0 0 0 0 0 0 0.5 0"/>
<feBlend mode="normal" in2="BackgroundImageFix" result="effect1_dropShadow_596_189"/>
<feBlend mode="normal" in="SourceGraphic" in2="effect1_dropShadow_596_189" result="shape"/>
</filter>
<linearGradient id="paint0_linear_596_189" x1="148" y1="0" x2="148" y2="675" gradientUnits="userSpaceOnUse">
<stop stop-color="white"/>
<stop offset="1" stop-color="#526C7B" stop-opacity="0"/>
</linearGradient>
</defs>
</svg>
