<svg width="90" height="38" viewBox="0 0 90 38" fill="none" xmlns="http://www.w3.org/2000/svg">
<g filter="url(#filter0_d_192_1031)">
<mask id="path-1-inside-1_192_1031" fill="white">
<path d="M0 18.5C0 9.93959 6.93959 3 15.5 3H74.4071C82.9675 3 89.9071 9.93959 89.9071 18.5C89.9071 27.0604 82.9675 34 74.4071 34H15.5C6.93961 34 0 27.0604 0 18.5Z"/>
</mask>
<path d="M0 18.5C0 9.93959 6.93959 3 15.5 3H74.4071C82.9675 3 89.9071 9.93959 89.9071 18.5C89.9071 27.0604 82.9675 34 74.4071 34H15.5C6.93961 34 0 27.0604 0 18.5Z" fill="url(#paint0_linear_192_1031)"/>
<path d="M15.5 6H74.4071V0H15.5V6ZM74.4071 31H15.5V37H74.4071V31ZM15.5 31C8.59646 31 3 25.4036 3 18.5H-3C-3 28.7173 5.28276 37 15.5 37V31ZM86.9071 18.5C86.9071 25.4036 81.3106 31 74.4071 31V37C84.6244 37 92.9071 28.7173 92.9071 18.5H86.9071ZM74.4071 6C81.3106 6 86.9071 11.5964 86.9071 18.5H92.9071C92.9071 8.28273 84.6243 0 74.4071 0V6ZM15.5 0C5.28273 0 -3 8.28273 -3 18.5H3C3 11.5964 8.59644 6 15.5 6V0Z" fill="white" mask="url(#path-1-inside-1_192_1031)"/>
</g>
<path d="M3 15C3 8.92487 7.92487 4 14 4H76C82.0751 4 87 8.92487 87 15C87 21.0751 82.0751 26 76 26H14C7.92487 26 3 21.0751 3 15Z" fill="url(#paint1_linear_192_1031)"/>
<path fill-rule="evenodd" clip-rule="evenodd" d="M38.2969 4.17725H13.9114C7.88519 4.17725 3 9.06244 3 15.0886C3 21.1148 7.88521 26 13.9114 26H51.588L38.2969 4.17725Z" fill="#FFD098"/>
<path d="M35.1914 15.0312V16.1973H30.6621V15.0312H35.1914ZM31.0254 11.4688V20H29.5547V11.4688H31.0254ZM36.3223 11.4688V20H34.8574V11.4688H36.3223ZM43.6582 18.834V20H39.1289V18.834H43.6582ZM39.5449 11.4688V20H38.0742V11.4688H39.5449ZM43.0664 15.0312V16.1797H39.1289V15.0312H43.0664ZM43.6289 11.4688V12.6406H39.1289V11.4688H43.6289ZM50.2031 18.834V20H45.9199V18.834H50.2031ZM46.3301 11.4688V20H44.8594V11.4688H46.3301ZM54.5801 16.8184H52.3594V15.6523H54.5801C54.9668 15.6523 55.2793 15.5898 55.5176 15.4648C55.7559 15.3398 55.9297 15.168 56.0391 14.9492C56.1523 14.7266 56.209 14.4727 56.209 14.1875C56.209 13.918 56.1523 13.666 56.0391 13.4316C55.9297 13.1934 55.7559 13.002 55.5176 12.8574C55.2793 12.7129 54.9668 12.6406 54.5801 12.6406H52.8105V20H51.3398V11.4688H54.5801C55.2402 11.4688 55.8008 11.5859 56.2617 11.8203C56.7266 12.0508 57.0801 12.3711 57.3223 12.7812C57.5645 13.1875 57.6855 13.6523 57.6855 14.1758C57.6855 14.7266 57.5645 15.1992 57.3223 15.5938C57.0801 15.9883 56.7266 16.291 56.2617 16.502C55.8008 16.7129 55.2402 16.8184 54.5801 16.8184ZM60.4922 11.4688L60.3516 17.4863H59.1445L58.998 11.4688H60.4922ZM58.957 19.332C58.957 19.1172 59.0273 18.9375 59.168 18.793C59.3125 18.6445 59.5117 18.5703 59.7656 18.5703C60.0156 18.5703 60.2129 18.6445 60.3574 18.793C60.502 18.9375 60.5742 19.1172 60.5742 19.332C60.5742 19.5391 60.502 19.7168 60.3574 19.8652C60.2129 20.0098 60.0156 20.082 59.7656 20.082C59.5117 20.082 59.3125 20.0098 59.168 19.8652C59.0273 19.7168 58.957 19.5391 58.957 19.332Z" fill="black"/>
<defs>
<filter id="filter0_d_192_1031" x="0" y="3" width="89.9072" height="35" filterUnits="userSpaceOnUse" color-interpolation-filters="sRGB">
<feFlood flood-opacity="0" result="BackgroundImageFix"/>
<feColorMatrix in="SourceAlpha" type="matrix" values="0 0 0 0 0 0 0 0 0 0 0 0 0 0 0 0 0 0 127 0" result="hardAlpha"/>
<feOffset dy="4"/>
<feComposite in2="hardAlpha" operator="out"/>
<feColorMatrix type="matrix" values="0 0 0 0 0 0 0 0 0 0 0 0 0 0 0 0 0 0 0.25 0"/>
<feBlend mode="normal" in2="BackgroundImageFix" result="effect1_dropShadow_192_1031"/>
<feBlend mode="normal" in="SourceGraphic" in2="effect1_dropShadow_192_1031" result="shape"/>
</filter>
<linearGradient id="paint0_linear_192_1031" x1="44.9535" y1="3" x2="44.9535" y2="59.8987" gradientUnits="userSpaceOnUse">
<stop stop-color="#FF9900"/>
<stop offset="1" stop-color="#C07300"/>
</linearGradient>
<linearGradient id="paint1_linear_192_1031" x1="45" y1="4" x2="45" y2="26" gradientUnits="userSpaceOnUse">
<stop stop-color="#FFD88E"/>
<stop offset="1" stop-color="#FF9900"/>
</linearGradient>
</defs>
</svg>
