<svg width="80" height="85" viewBox="0 0 80 85" fill="none" xmlns="http://www.w3.org/2000/svg">
<rect x="0.5" y="0.5" width="73.7996" height="73.7996" rx="9.5" fill="#C19A77" stroke="#523913"/>
<circle cx="66.0731" cy="71.0596" r="13.7133" fill="white"/>
<path d="M9.04199 9.52136V18.0526H7.91113V9.52136H9.04199ZM14.0752 9.52136V18.0526H12.9619V9.52136H14.0752ZM16.8174 9.52136V10.4471H10.2256V9.52136H16.8174ZM23.5029 17.1327V18.0526H18.9854V17.1327H23.5029ZM19.2139 9.52136V18.0526H18.083V9.52136H19.2139ZM22.9053 13.1893V14.1093H18.9854V13.1893H22.9053ZM23.4443 9.52136V10.4471H18.9854V9.52136H23.4443ZM25.2607 9.52136H26.3564L29.1514 16.4764L31.9404 9.52136H33.042L29.5732 18.0526H28.7178L25.2607 9.52136ZM24.9033 9.52136H25.8701L26.0283 14.7245V18.0526H24.9033V9.52136ZM32.4268 9.52136H33.3936V18.0526H32.2686V14.7245L32.4268 9.52136Z" fill="black"/>
</svg>
