<svg width="201" height="38" viewBox="0 0 201 38" fill="none" xmlns="http://www.w3.org/2000/svg">
<g filter="url(#filter0_d_183_872)">
<rect y="3" width="201" height="31" rx="15.5" fill="url(#paint0_linear_183_872)"/>
<rect x="1.5" y="4.5" width="198" height="28" rx="14" stroke="white" stroke-width="3"/>
</g>
<path d="M3 15C3 8.92487 7.92487 4 14 4H187C193.075 4 198 8.92487 198 15C198 21.0751 193.075 26 187 26H14C7.92487 26 3 21.0751 3 15Z" fill="url(#paint1_linear_183_872)"/>
<path fill-rule="evenodd" clip-rule="evenodd" d="M84.455 4H14C7.92487 4 3 8.92487 3 15C3 21.0751 7.92487 26 14 26H110.506L84.455 4Z" fill="#FFED9A" fill-opacity="0.5"/>
<path d="M48.0909 11.4688H51.1085C51.757 11.4688 52.3097 11.5664 52.7667 11.7617C53.2237 11.957 53.5734 12.2461 53.8155 12.6289C54.0616 13.0078 54.1847 13.4766 54.1847 14.0352C54.1847 14.4609 54.1066 14.8359 53.9503 15.1602C53.7941 15.4844 53.5734 15.7578 53.2882 15.9805C53.003 16.1992 52.6632 16.3691 52.2687 16.4902L51.8234 16.707H49.1105L49.0987 15.541H51.132C51.4835 15.541 51.7765 15.4785 52.0109 15.3535C52.2452 15.2285 52.421 15.0586 52.5382 14.8438C52.6593 14.625 52.7198 14.3789 52.7198 14.1055C52.7198 13.8086 52.6612 13.5508 52.5441 13.332C52.4308 13.1094 52.255 12.9395 52.0167 12.8223C51.7784 12.7012 51.4757 12.6406 51.1085 12.6406H49.5616V20H48.0909V11.4688ZM52.9601 20L50.9562 16.168L52.4972 16.1621L54.5304 19.9238V20H52.9601ZM61.2335 18.834V20H56.7042V18.834H61.2335ZM57.1202 11.4688V20H55.6495V11.4688H57.1202ZM60.6417 15.0312V16.1797H56.7042V15.0312H60.6417ZM61.2042 11.4688V12.6406H56.7042V11.4688H61.2042ZM66.923 17.8027C66.923 17.627 66.8956 17.4707 66.8409 17.334C66.7902 17.1973 66.6984 17.0723 66.5655 16.959C66.4327 16.8457 66.2452 16.7363 66.003 16.6309C65.7648 16.5215 65.4601 16.4102 65.089 16.2969C64.6827 16.1719 64.3077 16.0332 63.964 15.8809C63.6241 15.7246 63.3273 15.5449 63.0734 15.3418C62.8195 15.1348 62.6222 14.8984 62.4816 14.6328C62.3409 14.3633 62.2706 14.0527 62.2706 13.7012C62.2706 13.3535 62.3429 13.0371 62.4874 12.752C62.6359 12.4668 62.8448 12.2207 63.1144 12.0137C63.3878 11.8027 63.7101 11.6406 64.0812 11.5273C64.4523 11.4102 64.8624 11.3516 65.3116 11.3516C65.9445 11.3516 66.4894 11.4688 66.9464 11.7031C67.4073 11.9375 67.7609 12.252 68.007 12.6465C68.257 13.041 68.382 13.4766 68.382 13.9531H66.923C66.923 13.6719 66.8624 13.4238 66.7413 13.209C66.6241 12.9902 66.4445 12.8184 66.2023 12.6934C65.964 12.5684 65.6612 12.5059 65.2941 12.5059C64.9464 12.5059 64.6573 12.5586 64.4269 12.6641C64.1964 12.7695 64.0245 12.9121 63.9112 13.0918C63.798 13.2715 63.7413 13.4746 63.7413 13.7012C63.7413 13.8613 63.7784 14.0078 63.8527 14.1406C63.9269 14.2695 64.0402 14.3906 64.1925 14.5039C64.3448 14.6133 64.5362 14.7168 64.7667 14.8145C64.9972 14.9121 65.2687 15.0059 65.5812 15.0957C66.0538 15.2363 66.4659 15.3926 66.8175 15.5645C67.1691 15.7324 67.462 15.9238 67.6964 16.1387C67.9308 16.3535 68.1066 16.5977 68.2237 16.8711C68.3409 17.1406 68.3995 17.4473 68.3995 17.791C68.3995 18.1504 68.3273 18.4746 68.1827 18.7637C68.0382 19.0488 67.8312 19.293 67.5616 19.4961C67.296 19.6953 66.9757 19.8496 66.6007 19.959C66.2296 20.0645 65.8155 20.1172 65.3585 20.1172C64.9484 20.1172 64.5441 20.0625 64.1456 19.9531C63.7511 19.8438 63.3917 19.6777 63.0675 19.4551C62.7433 19.2285 62.4855 18.9473 62.2941 18.6113C62.1027 18.2715 62.007 17.875 62.007 17.4219H63.4777C63.4777 17.6992 63.5245 17.9355 63.6183 18.1309C63.7159 18.3262 63.8507 18.4863 64.0226 18.6113C64.1945 18.7324 64.3937 18.8223 64.6202 18.8809C64.8507 18.9395 65.0968 18.9688 65.3585 18.9688C65.7023 18.9688 65.9894 18.9199 66.2198 18.8223C66.4542 18.7246 66.63 18.5879 66.7472 18.4121C66.8644 18.2363 66.923 18.0332 66.923 17.8027ZM75.2843 18.834V20H70.755V18.834H75.2843ZM71.171 11.4688V20H69.7003V11.4688H71.171ZM74.6925 15.0312V16.1797H70.755V15.0312H74.6925ZM75.255 11.4688V12.6406H70.755V11.4688H75.255ZM80.1124 11.4688V20H78.6534V11.4688H80.1124ZM82.7902 11.4688V12.6406H75.9991V11.4688H82.7902ZM91.6612 17.2227H93.1261C93.0792 17.7812 92.923 18.2793 92.6573 18.7168C92.3917 19.1504 92.0187 19.4922 91.5382 19.7422C91.0577 19.9922 90.4737 20.1172 89.7862 20.1172C89.2589 20.1172 88.7843 20.0234 88.3624 19.8359C87.9405 19.6445 87.5792 19.375 87.2784 19.0273C86.9777 18.6758 86.7472 18.252 86.587 17.7559C86.4308 17.2598 86.3527 16.7051 86.3527 16.0918V15.3828C86.3527 14.7695 86.4327 14.2148 86.5929 13.7188C86.757 13.2227 86.9913 12.7988 87.296 12.4473C87.6007 12.0918 87.9659 11.8203 88.3917 11.6328C88.8214 11.4453 89.3038 11.3516 89.839 11.3516C90.5187 11.3516 91.0929 11.4766 91.5616 11.7266C92.0304 11.9766 92.3937 12.3223 92.6515 12.7637C92.9132 13.2051 93.0734 13.7109 93.132 14.2812H91.6671C91.628 13.9141 91.5421 13.5996 91.4093 13.3379C91.2804 13.0762 91.089 12.877 90.8351 12.7402C90.5812 12.5996 90.2491 12.5293 89.839 12.5293C89.503 12.5293 89.2101 12.5918 88.9601 12.7168C88.7101 12.8418 88.5011 13.0254 88.3331 13.2676C88.1652 13.5098 88.0382 13.8086 87.9523 14.1641C87.8702 14.5156 87.8292 14.918 87.8292 15.3711V16.0918C87.8292 16.5215 87.8663 16.9121 87.9405 17.2637C88.0187 17.6113 88.1359 17.9102 88.2921 18.1602C88.4523 18.4102 88.6554 18.6035 88.9015 18.7402C89.1476 18.877 89.4425 18.9453 89.7862 18.9453C90.2042 18.9453 90.5421 18.8789 90.7999 18.7461C91.0616 18.6133 91.2589 18.4199 91.3917 18.166C91.5284 17.9082 91.6183 17.5938 91.6612 17.2227ZM100.099 15.0312V16.1973H95.5695V15.0312H100.099ZM95.9327 11.4688V20H94.462V11.4688H95.9327ZM101.23 11.4688V20H99.7648V11.4688H101.23ZM106.409 12.6055L103.86 20H102.319L105.53 11.4688H106.515L106.409 12.6055ZM108.542 20L105.987 12.6055L105.876 11.4688H106.866L110.089 20H108.542ZM108.419 16.8359V18.002H103.778V16.8359H108.419ZM116.388 18.834V20H112.105V18.834H116.388ZM112.515 11.4688V20H111.044V11.4688H112.515ZM122.868 18.834V20H118.585V18.834H122.868ZM118.995 11.4688V20H117.525V11.4688H118.995ZM129.589 18.834V20H125.06V18.834H129.589ZM125.476 11.4688V20H124.005V11.4688H125.476ZM128.997 15.0312V16.1797H125.06V15.0312H128.997ZM129.56 11.4688V12.6406H125.06V11.4688H129.56ZM137.558 11.4688V20H136.087L132.261 13.8887V20H130.79V11.4688H132.261L136.099 17.5918V11.4688H137.558ZM145.86 15.6406V18.8984C145.739 19.0586 145.55 19.2344 145.292 19.4258C145.038 19.6133 144.7 19.7754 144.278 19.9121C143.857 20.0488 143.331 20.1172 142.702 20.1172C142.167 20.1172 141.677 20.0273 141.232 19.8477C140.786 19.6641 140.401 19.3965 140.077 19.0449C139.757 18.6934 139.509 18.2656 139.333 17.7617C139.157 17.2539 139.069 16.6758 139.069 16.0273V15.4355C139.069 14.791 139.15 14.2168 139.31 13.7129C139.474 13.2051 139.708 12.7754 140.013 12.4238C140.318 12.0723 140.685 11.8066 141.114 11.627C141.548 11.4434 142.038 11.3516 142.585 11.3516C143.284 11.3516 143.862 11.4688 144.319 11.7031C144.78 11.9336 145.136 12.2539 145.386 12.6641C145.636 13.0742 145.794 13.543 145.86 14.0703H144.419C144.372 13.7734 144.28 13.5078 144.144 13.2734C144.011 13.0391 143.819 12.8555 143.569 12.7227C143.323 12.5859 143.003 12.5176 142.609 12.5176C142.269 12.5176 141.97 12.582 141.712 12.7109C141.454 12.8398 141.239 13.0293 141.068 13.2793C140.9 13.5293 140.773 13.834 140.687 14.1934C140.601 14.5527 140.558 14.9629 140.558 15.4238V16.0273C140.558 16.4961 140.607 16.9121 140.704 17.2754C140.806 17.6387 140.95 17.9453 141.138 18.1953C141.329 18.4453 141.562 18.6348 141.835 18.7637C142.109 18.8887 142.417 18.9512 142.761 18.9512C143.097 18.9512 143.372 18.9238 143.587 18.8691C143.802 18.8105 143.972 18.7422 144.097 18.6641C144.226 18.582 144.325 18.5039 144.396 18.4297V16.7363H142.62V15.6406H145.86ZM153.073 18.834V20H148.544V18.834H153.073ZM148.96 11.4688V20H147.489V11.4688H148.96ZM152.482 15.0312V16.1797H148.544V15.0312H152.482ZM153.044 11.4688V12.6406H148.544V11.4688H153.044Z" fill="black"/>
<defs>
<filter id="filter0_d_183_872" x="0" y="3" width="201" height="35" filterUnits="userSpaceOnUse" color-interpolation-filters="sRGB">
<feFlood flood-opacity="0" result="BackgroundImageFix"/>
<feColorMatrix in="SourceAlpha" type="matrix" values="0 0 0 0 0 0 0 0 0 0 0 0 0 0 0 0 0 0 127 0" result="hardAlpha"/>
<feOffset dy="4"/>
<feComposite in2="hardAlpha" operator="out"/>
<feColorMatrix type="matrix" values="0 0 0 0 0 0 0 0 0 0 0 0 0 0 0 0 0 0 0.25 0"/>
<feBlend mode="normal" in2="BackgroundImageFix" result="effect1_dropShadow_183_872"/>
<feBlend mode="normal" in="SourceGraphic" in2="effect1_dropShadow_183_872" result="shape"/>
</filter>
<linearGradient id="paint0_linear_183_872" x1="100.5" y1="3" x2="100.5" y2="37.924" gradientUnits="userSpaceOnUse">
<stop stop-color="#FCEA94"/>
<stop offset="1" stop-color="#FF9900"/>
</linearGradient>
<linearGradient id="paint1_linear_183_872" x1="100.5" y1="4" x2="100.5" y2="26" gradientUnits="userSpaceOnUse">
<stop stop-color="#FCEA94"/>
<stop offset="1" stop-color="#F1C700"/>
</linearGradient>
</defs>
</svg>
