<svg width="202" height="38" viewBox="0 0 202 38" fill="none" xmlns="http://www.w3.org/2000/svg">
<g filter="url(#filter0_d_181_597)">
<rect y="3" width="201.791" height="31" rx="15.5" fill="url(#paint0_linear_181_597)"/>
<rect x="1.5" y="4.5" width="198.791" height="28" rx="14" stroke="white" stroke-width="3"/>
</g>
<path d="M3 15C3 8.92487 7.92487 4 14 4H188C194.075 4 199 8.92487 199 15C199 21.0751 194.075 26 188 26H14C7.92486 26 3 21.0751 3 15Z" fill="url(#paint1_linear_181_597)"/>
<path fill-rule="evenodd" clip-rule="evenodd" d="M84.9978 4.17725H14.1433C8.11712 4.17725 3.23193 9.06244 3.23193 15.0886C3.23193 21.1148 8.11711 26 14.1433 26H115.787L84.9978 4.17725Z" fill="#C4FF7B" fill-opacity="0.5"/>
<path d="M59.5625 11.4688H62.5801C63.2285 11.4688 63.7812 11.5664 64.2383 11.7617C64.6953 11.957 65.0449 12.2461 65.2871 12.6289C65.5332 13.0078 65.6562 13.4766 65.6562 14.0352C65.6562 14.4609 65.5781 14.8359 65.4219 15.1602C65.2656 15.4844 65.0449 15.7578 64.7598 15.9805C64.4746 16.1992 64.1348 16.3691 63.7402 16.4902L63.2949 16.707H60.582L60.5703 15.541H62.6035C62.9551 15.541 63.248 15.4785 63.4824 15.3535C63.7168 15.2285 63.8926 15.0586 64.0098 14.8438C64.1309 14.625 64.1914 14.3789 64.1914 14.1055C64.1914 13.8086 64.1328 13.5508 64.0156 13.332C63.9023 13.1094 63.7266 12.9395 63.4883 12.8223C63.25 12.7012 62.9473 12.6406 62.5801 12.6406H61.0332V20H59.5625V11.4688ZM64.4316 20L62.4277 16.168L63.9688 16.1621L66.002 19.9238V20H64.4316ZM71.9082 11.4688H73.373V17.1699C73.373 17.8184 73.2324 18.3613 72.9512 18.7988C72.6699 19.2363 72.2871 19.5664 71.8027 19.7891C71.3223 20.0078 70.7852 20.1172 70.1914 20.1172C69.5781 20.1172 69.0312 20.0078 68.5508 19.7891C68.0703 19.5664 67.6914 19.2363 67.4141 18.7988C67.1406 18.3613 67.0039 17.8184 67.0039 17.1699V11.4688H68.4688V17.1699C68.4688 17.5801 68.5391 17.918 68.6797 18.1836C68.8203 18.4453 69.0195 18.6387 69.2773 18.7637C69.5352 18.8887 69.8398 18.9512 70.1914 18.9512C70.543 18.9512 70.8457 18.8887 71.0996 18.7637C71.3574 18.6387 71.5566 18.4453 71.6973 18.1836C71.8379 17.918 71.9082 17.5801 71.9082 17.1699V11.4688ZM81.7402 11.4688V20H80.2695L76.4434 13.8887V20H74.9727V11.4688H76.4434L80.2812 17.5918V11.4688H81.7402ZM89.7207 16.8184H87.5V15.6523H89.7207C90.1074 15.6523 90.4199 15.5898 90.6582 15.4648C90.8965 15.3398 91.0703 15.168 91.1797 14.9492C91.293 14.7266 91.3496 14.4727 91.3496 14.1875C91.3496 13.918 91.293 13.666 91.1797 13.4316C91.0703 13.1934 90.8965 13.002 90.6582 12.8574C90.4199 12.7129 90.1074 12.6406 89.7207 12.6406H87.9512V20H86.4805V11.4688H89.7207C90.3809 11.4688 90.9414 11.5859 91.4023 11.8203C91.8672 12.0508 92.2207 12.3711 92.4629 12.7812C92.7051 13.1875 92.8262 13.6523 92.8262 14.1758C92.8262 14.7266 92.7051 15.1992 92.4629 15.5938C92.2207 15.9883 91.8672 16.291 91.4023 16.502C90.9414 16.7129 90.3809 16.8184 89.7207 16.8184ZM94.1445 11.4688H97.1621C97.8105 11.4688 98.3633 11.5664 98.8203 11.7617C99.2773 11.957 99.627 12.2461 99.8691 12.6289C100.115 13.0078 100.238 13.4766 100.238 14.0352C100.238 14.4609 100.16 14.8359 100.004 15.1602C99.8477 15.4844 99.627 15.7578 99.3418 15.9805C99.0566 16.1992 98.7168 16.3691 98.3223 16.4902L97.877 16.707H95.1641L95.1523 15.541H97.1855C97.5371 15.541 97.8301 15.4785 98.0645 15.3535C98.2988 15.2285 98.4746 15.0586 98.5918 14.8438C98.7129 14.625 98.7734 14.3789 98.7734 14.1055C98.7734 13.8086 98.7148 13.5508 98.5977 13.332C98.4844 13.1094 98.3086 12.9395 98.0703 12.8223C97.832 12.7012 97.5293 12.6406 97.1621 12.6406H95.6152V20H94.1445V11.4688ZM99.0137 20L97.0098 16.168L98.5508 16.1621L100.584 19.9238V20H99.0137ZM108.506 15.5V15.9688C108.506 16.6133 108.422 17.1914 108.254 17.7031C108.086 18.2148 107.846 18.6504 107.533 19.0098C107.225 19.3691 106.854 19.6445 106.42 19.8359C105.986 20.0234 105.506 20.1172 104.979 20.1172C104.455 20.1172 103.977 20.0234 103.543 19.8359C103.113 19.6445 102.74 19.3691 102.424 19.0098C102.107 18.6504 101.861 18.2148 101.686 17.7031C101.514 17.1914 101.428 16.6133 101.428 15.9688V15.5C101.428 14.8555 101.514 14.2793 101.686 13.7715C101.857 13.2598 102.1 12.8242 102.412 12.4648C102.729 12.1016 103.102 11.8262 103.531 11.6387C103.965 11.4473 104.443 11.3516 104.967 11.3516C105.494 11.3516 105.975 11.4473 106.408 11.6387C106.842 11.8262 107.215 12.1016 107.527 12.4648C107.84 12.8242 108.08 13.2598 108.248 13.7715C108.42 14.2793 108.506 14.8555 108.506 15.5ZM107.035 15.9688V15.4883C107.035 15.0117 106.988 14.5918 106.895 14.2285C106.805 13.8613 106.67 13.5547 106.49 13.3086C106.314 13.0586 106.098 12.8711 105.84 12.7461C105.582 12.6172 105.291 12.5527 104.967 12.5527C104.643 12.5527 104.354 12.6172 104.1 12.7461C103.846 12.8711 103.629 13.0586 103.449 13.3086C103.273 13.5547 103.139 13.8613 103.045 14.2285C102.951 14.5918 102.904 15.0117 102.904 15.4883V15.9688C102.904 16.4453 102.951 16.8672 103.045 17.2344C103.139 17.6016 103.275 17.9121 103.455 18.166C103.639 18.416 103.857 18.6055 104.111 18.7344C104.365 18.8594 104.654 18.9219 104.979 18.9219C105.307 18.9219 105.598 18.8594 105.852 18.7344C106.105 18.6055 106.32 18.416 106.496 18.166C106.672 17.9121 106.805 17.6016 106.895 17.2344C106.988 16.8672 107.035 16.4453 107.035 15.9688ZM116.527 15.6406V18.8984C116.406 19.0586 116.217 19.2344 115.959 19.4258C115.705 19.6133 115.367 19.7754 114.945 19.9121C114.523 20.0488 113.998 20.1172 113.369 20.1172C112.834 20.1172 112.344 20.0273 111.898 19.8477C111.453 19.6641 111.068 19.3965 110.744 19.0449C110.424 18.6934 110.176 18.2656 110 17.7617C109.824 17.2539 109.736 16.6758 109.736 16.0273V15.4355C109.736 14.791 109.816 14.2168 109.977 13.7129C110.141 13.2051 110.375 12.7754 110.68 12.4238C110.984 12.0723 111.352 11.8066 111.781 11.627C112.215 11.4434 112.705 11.3516 113.252 11.3516C113.951 11.3516 114.529 11.4688 114.986 11.7031C115.447 11.9336 115.803 12.2539 116.053 12.6641C116.303 13.0742 116.461 13.543 116.527 14.0703H115.086C115.039 13.7734 114.947 13.5078 114.811 13.2734C114.678 13.0391 114.486 12.8555 114.236 12.7227C113.99 12.5859 113.67 12.5176 113.275 12.5176C112.936 12.5176 112.637 12.582 112.379 12.7109C112.121 12.8398 111.906 13.0293 111.734 13.2793C111.566 13.5293 111.439 13.834 111.354 14.1934C111.268 14.5527 111.225 14.9629 111.225 15.4238V16.0273C111.225 16.4961 111.273 16.9121 111.371 17.2754C111.473 17.6387 111.617 17.9453 111.805 18.1953C111.996 18.4453 112.229 18.6348 112.502 18.7637C112.775 18.8887 113.084 18.9512 113.428 18.9512C113.764 18.9512 114.039 18.9238 114.254 18.8691C114.469 18.8105 114.639 18.7422 114.764 18.6641C114.893 18.582 114.992 18.5039 115.062 18.4297V16.7363H113.287V15.6406H116.527ZM118.156 11.4688H121.174C121.822 11.4688 122.375 11.5664 122.832 11.7617C123.289 11.957 123.639 12.2461 123.881 12.6289C124.127 13.0078 124.25 13.4766 124.25 14.0352C124.25 14.4609 124.172 14.8359 124.016 15.1602C123.859 15.4844 123.639 15.7578 123.354 15.9805C123.068 16.1992 122.729 16.3691 122.334 16.4902L121.889 16.707H119.176L119.164 15.541H121.197C121.549 15.541 121.842 15.4785 122.076 15.3535C122.311 15.2285 122.486 15.0586 122.604 14.8438C122.725 14.625 122.785 14.3789 122.785 14.1055C122.785 13.8086 122.727 13.5508 122.609 13.332C122.496 13.1094 122.32 12.9395 122.082 12.8223C121.844 12.7012 121.541 12.6406 121.174 12.6406H119.627V20H118.156V11.4688ZM123.025 20L121.021 16.168L122.562 16.1621L124.596 19.9238V20H123.025ZM129.037 12.6055L126.488 20H124.947L128.158 11.4688H129.143L129.037 12.6055ZM131.17 20L128.615 12.6055L128.504 11.4688H129.494L132.717 20H131.17ZM131.047 16.8359V18.002H126.406V16.8359H131.047ZM134.27 11.4688H135.582L138.049 18.0488L140.51 11.4688H141.822L138.564 20H137.521L134.27 11.4688ZM133.672 11.4688H134.92L135.137 17.1641V20H133.672V11.4688ZM141.172 11.4688H142.426V20H140.955V17.1641L141.172 11.4688Z" fill="black"/>
<defs>
<filter id="filter0_d_181_597" x="0" y="3" width="201.792" height="35" filterUnits="userSpaceOnUse" color-interpolation-filters="sRGB">
<feFlood flood-opacity="0" result="BackgroundImageFix"/>
<feColorMatrix in="SourceAlpha" type="matrix" values="0 0 0 0 0 0 0 0 0 0 0 0 0 0 0 0 0 0 127 0" result="hardAlpha"/>
<feOffset dy="4"/>
<feComposite in2="hardAlpha" operator="out"/>
<feColorMatrix type="matrix" values="0 0 0 0 0 0 0 0 0 0 0 0 0 0 0 0 0 0 0.25 0"/>
<feBlend mode="normal" in2="BackgroundImageFix" result="effect1_dropShadow_181_597"/>
<feBlend mode="normal" in="SourceGraphic" in2="effect1_dropShadow_181_597" result="shape"/>
</filter>
<linearGradient id="paint0_linear_181_597" x1="100.896" y1="3" x2="100.896" y2="59.8987" gradientUnits="userSpaceOnUse">
<stop stop-color="#A6CF51"/>
<stop offset="1" stop-color="#09733B"/>
</linearGradient>
<linearGradient id="paint1_linear_181_597" x1="101" y1="4" x2="101" y2="26" gradientUnits="userSpaceOnUse">
<stop stop-color="#67E107"/>
<stop offset="1" stop-color="#93DB5B"/>
</linearGradient>
</defs>
</svg>
