<svg width="268" height="83" viewBox="0 0 268 83" fill="none" xmlns="http://www.w3.org/2000/svg">
<g filter="url(#filter0_d_175_413)">
<rect width="249.742" height="79" rx="39.5" fill="url(#paint0_linear_175_413)"/>
<rect x="1.5" y="1.5" width="246.742" height="76" rx="38" stroke="white" stroke-width="3"/>
</g>
<path d="M4 36C4 17.7746 18.7746 3 37 3H213C231.225 3 246 17.7746 246 36C246 54.2254 231.225 69 213 69H37C18.7746 69 4 54.2254 4 36Z" fill="url(#paint1_linear_175_413)"/>
<path fill-rule="evenodd" clip-rule="evenodd" d="M105.196 3H37C18.7746 3 4 17.7746 4 36C4 54.2254 18.7746 69 37 69H143.301L105.196 3Z" fill="#C4FF7B" fill-opacity="0.5"/>
<path d="M32 34L41 27L50 34V45C50 45.5304 49.7893 46.0391 49.4142 46.4142C49.0391 46.7893 48.5304 47 48 47H34C33.4696 47 32.9609 46.7893 32.5858 46.4142C32.2107 46.0391 32 45.5304 32 45V34Z" stroke="black" stroke-width="2" stroke-linecap="round" stroke-linejoin="round"/>
<path d="M38 47V37H44V47" stroke="black" stroke-width="2" stroke-linecap="round" stroke-linejoin="round"/>
<path d="M82.6836 42.5C82.6836 42.2109 82.6406 41.9531 82.5547 41.7266C82.4688 41.4922 82.3125 41.2773 82.0859 41.082C81.8594 40.8867 81.5391 40.6914 81.125 40.4961C80.7109 40.293 80.168 40.0859 79.4961 39.875C78.7305 39.625 78 39.3438 77.3047 39.0312C76.6172 38.7109 76.0039 38.3398 75.4648 37.918C74.9258 37.4961 74.5 37.0039 74.1875 36.4414C73.8828 35.8789 73.7305 35.2227 73.7305 34.4727C73.7305 33.7461 73.8906 33.0898 74.2109 32.5039C74.5312 31.918 74.9805 31.418 75.5586 31.0039C76.1367 30.582 76.8164 30.2617 77.5977 30.043C78.3789 29.8164 79.2383 29.7031 80.1758 29.7031C81.4258 29.7031 82.5234 29.9258 83.4688 30.3711C84.4219 30.8086 85.1641 31.4258 85.6953 32.2227C86.2266 33.0117 86.4922 33.9297 86.4922 34.9766H82.6953C82.6953 34.5156 82.5977 34.1094 82.4023 33.7578C82.2148 33.3984 81.9258 33.1172 81.5352 32.9141C81.1523 32.7109 80.6719 32.6094 80.0938 32.6094C79.5312 32.6094 79.0586 32.6953 78.6758 32.8672C78.3008 33.0312 78.0156 33.2578 77.8203 33.5469C77.6328 33.8359 77.5391 34.1523 77.5391 34.4961C77.5391 34.7695 77.6094 35.0195 77.75 35.2461C77.8984 35.4648 78.1094 35.6719 78.3828 35.8672C78.6641 36.0547 79.0078 36.2344 79.4141 36.4062C79.8203 36.5781 80.2852 36.7422 80.8086 36.8984C81.7227 37.1875 82.5312 37.5078 83.2344 37.8594C83.9453 38.2109 84.543 38.6094 85.0273 39.0547C85.5117 39.5 85.875 40.0039 86.1172 40.5664C86.3672 41.1289 86.4922 41.7656 86.4922 42.4766C86.4922 43.2344 86.3438 43.9062 86.0469 44.4922C85.7578 45.0781 85.3359 45.5781 84.7812 45.9922C84.2344 46.3984 83.5781 46.707 82.8125 46.918C82.0469 47.1289 81.1914 47.2344 80.2461 47.2344C79.3867 47.2344 78.5391 47.125 77.7031 46.9062C76.8672 46.6797 76.1094 46.3359 75.4297 45.875C74.7578 45.4141 74.2188 44.8281 73.8125 44.1172C73.4141 43.3984 73.2148 42.5469 73.2148 41.5625H77.0352C77.0352 42.0781 77.1094 42.5156 77.2578 42.875C77.4062 43.2266 77.6172 43.5117 77.8906 43.7305C78.1719 43.9492 78.5117 44.1055 78.9102 44.1992C79.3086 44.293 79.7539 44.3398 80.2461 44.3398C80.8164 44.3398 81.2773 44.2617 81.6289 44.1055C81.9883 43.9414 82.2539 43.7188 82.4258 43.4375C82.5977 43.1562 82.6836 42.8438 82.6836 42.5ZM96.6875 29.9375V47H92.8789V29.9375H96.6875ZM101.879 29.9375V32.9023H87.793V29.9375H101.879ZM109.52 33.1836L105.113 47H101.035L107.352 29.9375H109.93L109.52 33.1836ZM113.176 47L108.758 33.1836L108.301 29.9375H110.914L117.254 47H113.176ZM112.988 40.6484V43.6016H104.094V40.6484H112.988ZM118.672 29.9375H125.223C126.527 29.9375 127.656 30.1328 128.609 30.5234C129.57 30.9141 130.309 31.4922 130.824 32.2578C131.34 33.0234 131.598 33.9688 131.598 35.0938C131.598 36.0312 131.445 36.8281 131.141 37.4844C130.836 38.1406 130.406 38.6836 129.852 39.1133C129.305 39.543 128.664 39.8906 127.93 40.1562L126.688 40.8359H121.109L121.086 37.8711H125.234C125.805 37.8711 126.277 37.7695 126.652 37.5664C127.027 37.3633 127.309 37.0781 127.496 36.7109C127.691 36.3359 127.789 35.8984 127.789 35.3984C127.789 34.8828 127.691 34.4375 127.496 34.0625C127.301 33.6875 127.012 33.4023 126.629 33.207C126.254 33.0039 125.785 32.9023 125.223 32.9023H122.492V47H118.672V29.9375ZM128.117 47L124.285 39.418L128.316 39.4062L132.207 46.8242V47H128.117ZM141.5 29.9375V47H137.691V29.9375H141.5ZM146.691 29.9375V32.9023H132.605V29.9375H146.691ZM168.125 38.0938V38.8555C168.125 40.1523 167.945 41.3164 167.586 42.3477C167.234 43.3789 166.73 44.2578 166.074 44.9844C165.426 45.7109 164.652 46.2695 163.754 46.6602C162.863 47.043 161.875 47.2344 160.789 47.2344C159.703 47.2344 158.711 47.043 157.812 46.6602C156.914 46.2695 156.133 45.7109 155.469 44.9844C154.812 44.2578 154.305 43.3789 153.945 42.3477C153.586 41.3164 153.406 40.1523 153.406 38.8555V38.0938C153.406 36.7969 153.586 35.6328 153.945 34.6016C154.305 33.5625 154.809 32.6797 155.457 31.9531C156.113 31.2266 156.891 30.6719 157.789 30.2891C158.688 29.8984 159.68 29.7031 160.766 29.7031C161.852 29.7031 162.844 29.8984 163.742 30.2891C164.641 30.6719 165.414 31.2266 166.062 31.9531C166.719 32.6797 167.227 33.5625 167.586 34.6016C167.945 35.6328 168.125 36.7969 168.125 38.0938ZM164.27 38.8555V38.0703C164.27 37.2031 164.191 36.4375 164.035 35.7734C163.879 35.1016 163.652 34.5391 163.355 34.0859C163.059 33.6328 162.691 33.293 162.254 33.0664C161.816 32.832 161.32 32.7148 160.766 32.7148C160.188 32.7148 159.684 32.832 159.254 33.0664C158.824 33.293 158.461 33.6328 158.164 34.0859C157.875 34.5391 157.652 35.1016 157.496 35.7734C157.348 36.4375 157.273 37.2031 157.273 38.0703V38.8555C157.273 39.7148 157.348 40.4805 157.496 41.1523C157.652 41.8164 157.879 42.3789 158.176 42.8398C158.473 43.3008 158.836 43.6484 159.266 43.8828C159.703 44.1172 160.211 44.2344 160.789 44.2344C161.344 44.2344 161.836 44.1172 162.266 43.8828C162.703 43.6484 163.07 43.3008 163.367 42.8398C163.664 42.3789 163.887 41.8164 164.035 41.1523C164.191 40.4805 164.27 39.7148 164.27 38.8555ZM176.516 43.2148L180.312 29.9375H184.566L178.719 47H175.941L176.516 43.2148ZM173.059 29.9375L176.844 43.2148L177.441 47H174.629L168.816 29.9375H173.059ZM197.586 44.0469V47H188.504V44.0469H197.586ZM189.805 29.9375V47H185.984V29.9375H189.805ZM196.414 36.8047V39.6641H188.504V36.8047H196.414ZM197.598 29.9375V32.9023H188.504V29.9375H197.598ZM199.461 29.9375H206.012C207.316 29.9375 208.445 30.1328 209.398 30.5234C210.359 30.9141 211.098 31.4922 211.613 32.2578C212.129 33.0234 212.387 33.9688 212.387 35.0938C212.387 36.0312 212.234 36.8281 211.93 37.4844C211.625 38.1406 211.195 38.6836 210.641 39.1133C210.094 39.543 209.453 39.8906 208.719 40.1562L207.477 40.8359H201.898L201.875 37.8711H206.023C206.594 37.8711 207.066 37.7695 207.441 37.5664C207.816 37.3633 208.098 37.0781 208.285 36.7109C208.48 36.3359 208.578 35.8984 208.578 35.3984C208.578 34.8828 208.48 34.4375 208.285 34.0625C208.09 33.6875 207.801 33.4023 207.418 33.207C207.043 33.0039 206.574 32.9023 206.012 32.9023H203.281V47H199.461V29.9375ZM208.906 47L205.074 39.418L209.105 39.4062L212.996 46.8242V47H208.906Z" fill="black"/>
<path d="M82.5547 41.7266L81.6158 42.0708L81.6197 42.0812L82.5547 41.7266ZM81.125 40.4961L80.6846 41.3939L80.6915 41.3973L80.6984 41.4005L81.125 40.4961ZM79.4961 39.875L79.1857 40.8257L79.1966 40.8291L79.4961 39.875ZM77.3047 39.0312L76.8823 39.9378L76.8947 39.9434L77.3047 39.0312ZM74.1875 36.4414L73.3082 36.9177L73.3133 36.927L74.1875 36.4414ZM75.5586 31.0039L76.1409 31.8169L76.1481 31.8117L75.5586 31.0039ZM77.5977 30.043L77.8673 31.006L77.8762 31.0034L77.5977 30.043ZM83.4688 30.3711L83.0426 31.2758L83.0516 31.2799L83.4688 30.3711ZM85.6953 32.2227L84.8633 32.7774L84.8658 32.7811L85.6953 32.2227ZM86.4922 34.9766V35.9766H87.4922V34.9766H86.4922ZM82.6953 34.9766H81.6953V35.9766H82.6953V34.9766ZM82.4023 33.7578L81.5158 34.2204L81.5218 34.232L81.5282 34.2435L82.4023 33.7578ZM81.5352 32.9141L81.0664 33.7974L81.0738 33.8013L81.5352 32.9141ZM78.6758 32.8672L79.0766 33.7834L79.0854 33.7795L78.6758 32.8672ZM77.8203 33.5469L76.9917 32.987L76.9865 32.9948L76.9813 33.0027L77.8203 33.5469ZM77.75 35.2461L76.9004 35.7735L76.9111 35.7908L76.9225 35.8076L77.75 35.2461ZM78.3828 35.8672L77.8016 36.6809L77.8147 36.6903L77.8281 36.6992L78.3828 35.8672ZM80.8086 36.8984L81.1101 35.945L81.1024 35.9425L81.0946 35.9402L80.8086 36.8984ZM83.2344 37.8594L82.7872 38.7538L82.7911 38.7558L83.2344 37.8594ZM86.1172 40.5664L85.1986 40.9619L85.2034 40.9725L86.1172 40.5664ZM86.0469 44.4922L85.1548 44.0402L85.1501 44.0498L86.0469 44.4922ZM84.7812 45.9922L85.3776 46.7949L85.3794 46.7935L84.7812 45.9922ZM77.7031 46.9062L77.4415 47.8715L77.45 47.8737L77.7031 46.9062ZM75.4297 45.875L74.864 46.6996L74.8684 46.7026L75.4297 45.875ZM73.8125 44.1172L72.9378 44.6021L72.9443 44.6133L73.8125 44.1172ZM73.2148 41.5625V40.5625H72.2148V41.5625H73.2148ZM77.0352 41.5625H78.0352V40.5625H77.0352V41.5625ZM77.2578 42.875L76.3335 43.2568L76.3366 43.264L77.2578 42.875ZM77.8906 43.7305L77.2659 44.5114L77.2767 44.5198L77.8906 43.7305ZM81.6289 44.1055L82.0351 45.0193L82.0442 45.0152L81.6289 44.1055ZM83.6836 42.5C83.6836 42.1126 83.626 41.7313 83.4897 41.3719L81.6197 42.0812C81.6552 42.1749 81.6836 42.3093 81.6836 42.5H83.6836ZM83.4936 41.3823C83.3384 40.9592 83.0688 40.6091 82.7389 40.3246L81.433 41.8394C81.5562 41.9456 81.5991 42.0252 81.6158 42.0708L83.4936 41.3823ZM82.7389 40.3246C82.4178 40.0479 82.009 39.8074 81.5516 39.5917L80.6984 41.4005C81.0691 41.5754 81.3009 41.7256 81.433 41.8394L82.7389 40.3246ZM81.5654 39.5983C81.0888 39.3645 80.4935 39.14 79.7956 38.9209L79.1966 40.8291C79.8425 41.0319 80.333 41.2214 80.6846 41.3939L81.5654 39.5983ZM79.8065 38.9244C79.0728 38.6848 78.3757 38.4163 77.7146 38.1191L76.8947 39.9434C77.6243 40.2712 78.3881 40.5652 79.1857 40.8256L79.8065 38.9244ZM77.727 38.1248C77.1012 37.8332 76.5542 37.5007 76.0812 37.1305L74.8485 38.7055C75.4536 39.179 76.1332 39.5887 76.8824 39.9377L77.727 38.1248ZM76.0812 37.1305C75.6405 36.7856 75.3052 36.3941 75.0617 35.9558L73.3133 36.927C73.6948 37.6137 74.211 38.2066 74.8485 38.7055L76.0812 37.1305ZM75.0668 35.9651C74.854 35.5722 74.7305 35.0851 74.7305 34.4727H72.7305C72.7305 35.3602 72.9117 36.1856 73.3082 36.9177L75.0668 35.9651ZM74.7305 34.4727C74.7305 33.8986 74.8554 33.4097 75.0884 32.9836L73.3335 32.0242C72.9258 32.77 72.7305 33.5936 72.7305 34.4727H74.7305ZM75.0884 32.9836C75.332 32.538 75.6768 32.1493 76.1409 31.8169L74.9763 30.1909C74.2841 30.6867 73.7305 31.2979 73.3335 32.0242L75.0884 32.9836ZM76.1481 31.8117C76.6177 31.469 77.1858 31.1967 77.8673 31.0059L77.328 29.08C76.447 29.3267 75.6557 29.6951 74.9691 30.1961L76.1481 31.8117ZM77.8762 31.0034C78.5544 30.8067 79.3185 30.7031 80.1758 30.7031V28.7031C79.1581 28.7031 78.2035 28.8261 77.3191 29.0825L77.8762 31.0034ZM80.1758 30.7031C81.307 30.7031 82.2542 30.9043 83.0426 31.2757L83.8949 29.4664C82.7927 28.9472 81.5446 28.7031 80.1758 28.7031V30.7031ZM83.0516 31.2799C83.8528 31.6477 84.4445 32.1492 84.8633 32.7774L86.5274 31.668C85.8836 30.7024 84.9909 29.9695 83.8859 29.4623L83.0516 31.2799ZM84.8658 32.7811C85.2748 33.3887 85.4922 34.1078 85.4922 34.9766H87.4922C87.4922 33.7516 87.1783 32.6348 86.5248 31.6642L84.8658 32.7811ZM86.4922 33.9766H82.6953V35.9766H86.4922V33.9766ZM83.6953 34.9766C83.6953 34.3708 83.5657 33.7928 83.2765 33.2722L81.5282 34.2435C81.6296 34.4259 81.6953 34.6604 81.6953 34.9766H83.6953ZM83.2889 33.2952C82.9983 32.7383 82.5526 32.316 81.9965 32.0268L81.0738 33.8013C81.299 33.9184 81.4314 34.0586 81.5158 34.2204L83.2889 33.2952ZM82.0039 32.0307C81.4366 31.7297 80.7829 31.6094 80.0938 31.6094V33.6094C80.5609 33.6094 80.8681 33.6922 81.0664 33.7974L82.0039 32.0307ZM80.0938 31.6094C79.4356 31.6094 78.8137 31.7091 78.2662 31.9549L79.0854 33.7795C79.3035 33.6815 79.6269 33.6094 80.0938 33.6094V31.6094ZM78.275 31.951C77.7571 32.1776 77.3103 32.5156 76.9917 32.987L78.6489 34.1067C78.721 34 78.8445 33.8849 79.0766 33.7833L78.275 31.951ZM76.9813 33.0027C76.689 33.4534 76.5391 33.9587 76.5391 34.4961H78.5391C78.5391 34.346 78.5766 34.2185 78.6593 34.0911L76.9813 33.0027ZM76.5391 34.4961C76.5391 34.9509 76.6589 35.3844 76.9004 35.7735L78.5996 34.7187C78.5599 34.6547 78.5391 34.5882 78.5391 34.4961H76.5391ZM76.9225 35.8076C77.1527 36.1469 77.4567 36.4346 77.8016 36.6809L78.9641 35.0535C78.762 34.9091 78.6441 34.7828 78.5775 34.6846L76.9225 35.8076ZM77.8281 36.6992C78.1744 36.9301 78.5769 37.1379 79.0244 37.3272L79.8037 35.4853C79.4388 35.3309 79.1537 35.1793 78.9375 35.0351L77.8281 36.6992ZM79.0244 37.3272C79.4713 37.5163 79.9718 37.6923 80.5226 37.8567L81.0946 35.9402C80.5985 35.7921 80.1693 35.64 79.8037 35.4853L79.0244 37.3272ZM80.5071 37.8519C81.3815 38.1284 82.1398 38.4301 82.7872 38.7538L83.6816 36.9649C82.9227 36.5855 82.0638 36.2466 81.1101 35.945L80.5071 37.8519ZM82.7911 38.7558C83.4338 39.0736 83.9486 39.4213 84.3505 39.7909L85.7041 38.3185C85.1373 37.7974 84.4568 37.3483 83.6776 36.963L82.7911 38.7558ZM84.3505 39.7909C84.7391 40.1481 85.0163 40.5381 85.1987 40.9619L87.0357 40.1709C86.7337 39.4697 86.2843 38.8519 85.7041 38.3185L84.3505 39.7909ZM85.2034 40.9725C85.3884 41.3889 85.4922 41.884 85.4922 42.4766H87.4922C87.4922 41.6473 87.346 40.8689 87.031 40.1603L85.2034 40.9725ZM85.4922 42.4766C85.4922 43.1015 85.3706 43.6145 85.1548 44.0402L86.9389 44.9442C87.3169 44.198 87.4922 43.3672 87.4922 42.4766H85.4922ZM85.1501 44.0498C84.935 44.4858 84.619 44.8654 84.1831 45.1908L85.3794 46.7935C86.0529 46.2908 86.5807 45.6705 86.9437 44.9346L85.1501 44.0498ZM84.1849 45.1894C83.7524 45.5108 83.2127 45.7705 82.5469 45.9539L83.0781 47.882C83.9436 47.6436 84.7164 47.2861 85.3776 46.7949L84.1849 45.1894ZM82.5469 45.9539C81.8824 46.137 81.1182 46.2344 80.2461 46.2344V48.2344C81.2647 48.2344 82.2114 48.1208 83.0781 47.882L82.5469 45.9539ZM80.2461 46.2344C79.4726 46.2344 78.71 46.1361 77.9563 45.9388L77.45 47.8737C78.3681 48.1139 79.3008 48.2344 80.2461 48.2344V46.2344ZM77.9647 45.9411C77.2297 45.7419 76.5741 45.4429 75.991 45.0474L74.8684 46.7026C75.6446 47.229 76.5047 47.6175 77.4415 47.8714L77.9647 45.9411ZM75.9954 45.0504C75.4485 44.6752 75.0126 44.2018 74.6807 43.621L72.9443 44.6133C73.4249 45.4545 74.0672 46.1529 74.864 46.6996L75.9954 45.0504ZM74.6871 43.6324C74.3858 43.0887 74.2148 42.4107 74.2148 41.5625H72.2148C72.2148 42.683 72.4424 43.7081 72.9379 44.602L74.6871 43.6324ZM73.2148 42.5625H77.0352V40.5625H73.2148V42.5625ZM76.0352 41.5625C76.0352 42.1687 76.1217 42.7438 76.3335 43.2568L78.1821 42.4932C78.0971 42.2874 78.0352 41.9876 78.0352 41.5625H76.0352ZM76.3366 43.264C76.5438 43.7547 76.8511 44.1795 77.2659 44.5113L78.5153 42.9496C78.3832 42.8439 78.2687 42.6984 78.1791 42.486L76.3366 43.264ZM77.2767 44.5198C77.6872 44.8391 78.1634 45.0508 78.6811 45.1726L79.1392 43.2258C78.86 43.1601 78.6565 43.0593 78.5046 42.9411L77.2767 44.5198ZM78.6811 45.1726C79.1679 45.2872 79.6918 45.3398 80.2461 45.3398V43.3398C79.816 43.3398 79.4493 43.2988 79.1392 43.2258L78.6811 45.1726ZM80.2461 45.3398C80.8947 45.3398 81.5093 45.253 82.035 45.0193L81.2228 43.1917C81.0454 43.2705 80.7381 43.3398 80.2461 43.3398V45.3398ZM82.0442 45.0152C82.5484 44.785 82.984 44.4418 83.2791 43.959L81.5725 42.916C81.5238 42.9957 81.4282 43.0978 81.2136 43.1958L82.0442 45.0152ZM83.2791 43.959C83.5511 43.5138 83.6836 43.0195 83.6836 42.5H81.6836C81.6836 42.668 81.6442 42.7987 81.5725 42.916L83.2791 43.959ZM96.6875 29.9375H97.6875V28.9375H96.6875V29.9375ZM96.6875 47V48H97.6875V47H96.6875ZM92.8789 47H91.8789V48H92.8789V47ZM92.8789 29.9375V28.9375H91.8789V29.9375H92.8789ZM101.879 29.9375H102.879V28.9375H101.879V29.9375ZM101.879 32.9023V33.9023H102.879V32.9023H101.879ZM87.793 32.9023H86.793V33.9023H87.793V32.9023ZM87.793 29.9375V28.9375H86.793V29.9375H87.793ZM95.6875 29.9375V47H97.6875V29.9375H95.6875ZM96.6875 46H92.8789V48H96.6875V46ZM93.8789 47V29.9375H91.8789V47H93.8789ZM92.8789 30.9375H96.6875V28.9375H92.8789V30.9375ZM100.879 29.9375V32.9023H102.879V29.9375H100.879ZM101.879 31.9023H87.793V33.9023H101.879V31.9023ZM88.793 32.9023V29.9375H86.793V32.9023H88.793ZM87.793 30.9375H101.879V28.9375H87.793V30.9375ZM109.52 33.1836L110.472 33.4874L110.5 33.4L110.512 33.309L109.52 33.1836ZM105.113 47V48H105.844L106.066 47.3038L105.113 47ZM101.035 47L100.097 46.6528L99.5986 48H101.035V47ZM107.352 29.9375V28.9375H106.655L106.414 29.5903L107.352 29.9375ZM109.93 29.9375L110.922 30.0629L111.064 28.9375H109.93V29.9375ZM113.176 47L112.223 47.3046L112.446 48H113.176V47ZM108.758 33.1836L107.768 33.323L107.779 33.4072L107.805 33.4882L108.758 33.1836ZM108.301 29.9375V28.9375H107.15L107.311 30.0769L108.301 29.9375ZM110.914 29.9375L111.851 29.5892L111.609 28.9375H110.914V29.9375ZM117.254 47V48H118.692L118.191 46.6517L117.254 47ZM112.988 40.6484H113.988V39.6484H112.988V40.6484ZM112.988 43.6016V44.6016H113.988V43.6016H112.988ZM104.094 43.6016H103.094V44.6016H104.094V43.6016ZM104.094 40.6484V39.6484H103.094V40.6484H104.094ZM108.567 32.8798L104.161 46.6962L106.066 47.3038L110.472 33.4874L108.567 32.8798ZM105.113 46H101.035V48H105.113V46ZM101.973 47.3472L108.289 30.2847L106.414 29.5903L100.097 46.6528L101.973 47.3472ZM107.352 30.9375H109.93V28.9375H107.352V30.9375ZM108.938 29.8121L108.527 33.0582L110.512 33.309L110.922 30.0629L108.938 29.8121ZM114.128 46.6954L109.71 32.879L107.805 33.4882L112.223 47.3046L114.128 46.6954ZM109.748 33.0442L109.291 29.7981L107.311 30.0769L107.768 33.323L109.748 33.0442ZM108.301 30.9375H110.914V28.9375H108.301V30.9375ZM109.977 30.2858L116.317 47.3483L118.191 46.6517L111.851 29.5892L109.977 30.2858ZM117.254 46H113.176V48H117.254V46ZM111.988 40.6484V43.6016H113.988V40.6484H111.988ZM112.988 42.6016H104.094V44.6016H112.988V42.6016ZM105.094 43.6016V40.6484H103.094V43.6016H105.094ZM104.094 41.6484H112.988V39.6484H104.094V41.6484ZM118.672 29.9375V28.9375H117.672V29.9375H118.672ZM128.609 30.5234L128.23 31.4487L128.233 31.4498L128.609 30.5234ZM129.852 39.1133L129.239 38.3227L129.234 38.327L129.852 39.1133ZM127.93 40.1562L127.59 39.2159L127.517 39.242L127.45 39.279L127.93 40.1562ZM126.688 40.8359V41.8359H126.943L127.168 41.7132L126.688 40.8359ZM121.109 40.8359L120.109 40.8438L120.117 41.8359H121.109V40.8359ZM121.086 37.8711V36.8711H120.078L120.086 37.879L121.086 37.8711ZM127.496 36.7109L126.609 36.249L126.605 36.2562L127.496 36.7109ZM126.629 33.207L126.153 34.0863L126.163 34.0922L126.174 34.0978L126.629 33.207ZM122.492 32.9023V31.9023H121.492V32.9023H122.492ZM122.492 47V48H123.492V47H122.492ZM118.672 47H117.672V48H118.672V47ZM128.117 47L127.225 47.4511L127.502 48H128.117V47ZM124.285 39.418L124.282 38.418L122.662 38.4227L123.393 39.869L124.285 39.418ZM128.316 39.4062L129.202 38.9418L128.92 38.4045L128.313 38.4063L128.316 39.4062ZM132.207 46.8242H133.207V46.5779L133.093 46.3597L132.207 46.8242ZM132.207 47V48H133.207V47H132.207ZM118.672 30.9375H125.223V28.9375H118.672V30.9375ZM125.223 30.9375C126.431 30.9375 127.425 31.1187 128.23 31.4487L128.989 29.5981C127.888 29.147 126.624 28.9375 125.223 28.9375V30.9375ZM128.233 31.4498C129.033 31.7752 129.604 32.2356 129.995 32.8164L131.654 31.6992C131.014 30.7488 130.107 30.0529 128.986 29.5971L128.233 31.4498ZM129.995 32.8164C130.377 33.3839 130.598 34.1238 130.598 35.0938H132.598C132.598 33.8137 132.303 32.663 131.654 31.6992L129.995 32.8164ZM130.598 35.0938C130.598 35.9271 130.462 36.5719 130.234 37.0633L132.048 37.9055C132.429 37.0844 132.598 36.1354 132.598 35.0938H130.598ZM130.234 37.0633C129.994 37.5793 129.664 37.994 129.239 38.3227L130.464 39.9038C131.149 39.3732 131.678 38.702 132.048 37.9055L130.234 37.0633ZM129.234 38.327C128.78 38.6833 128.236 38.9821 127.59 39.2159L128.27 41.0966C129.092 40.7992 129.829 40.4026 130.469 39.8996L129.234 38.327ZM127.45 39.279L126.207 39.9587L127.168 41.7132L128.41 41.0335L127.45 39.279ZM126.688 39.8359H121.109V41.8359H126.688V39.8359ZM122.109 40.828L122.086 37.8632L120.086 37.879L120.109 40.8438L122.109 40.828ZM121.086 38.8711H125.234V36.8711H121.086V38.8711ZM125.234 38.8711C125.917 38.8711 126.566 38.7503 127.129 38.4457L126.176 36.6871C125.988 36.7888 125.692 36.8711 125.234 36.8711V38.8711ZM127.129 38.4457C127.675 38.1498 128.104 37.7195 128.387 37.1657L126.605 36.2562C126.513 36.4367 126.38 36.5768 126.176 36.6871L127.129 38.4457ZM128.383 37.1729C128.665 36.6313 128.789 36.03 128.789 35.3984H126.789C126.789 35.7669 126.718 36.0405 126.609 36.249L128.383 37.1729ZM128.789 35.3984C128.789 34.7568 128.667 34.1462 128.383 33.6006L126.609 34.5244C126.716 34.7288 126.789 35.0088 126.789 35.3984H128.789ZM128.383 33.6006C128.09 33.0379 127.648 32.6044 127.083 32.3163L126.174 34.0978C126.375 34.2003 126.512 34.3371 126.609 34.5244L128.383 33.6006ZM127.105 32.3277C126.545 32.0241 125.9 31.9023 125.223 31.9023V33.9023C125.67 33.9023 125.963 33.9837 126.153 34.0863L127.105 32.3277ZM125.223 31.9023H122.492V33.9023H125.223V31.9023ZM121.492 32.9023V47H123.492V32.9023H121.492ZM122.492 46H118.672V48H122.492V46ZM119.672 47V29.9375H117.672V47H119.672ZM129.01 46.5489L125.178 38.9669L123.393 39.869L127.225 47.4511L129.01 46.5489ZM124.288 40.418L128.319 40.4062L128.313 38.4063L124.282 38.418L124.288 40.418ZM127.431 39.8707L131.321 47.2887L133.093 46.3597L129.202 38.9418L127.431 39.8707ZM131.207 46.8242V47H133.207V46.8242H131.207ZM132.207 46H128.117V48H132.207V46ZM141.5 29.9375H142.5V28.9375H141.5V29.9375ZM141.5 47V48H142.5V47H141.5ZM137.691 47H136.691V48H137.691V47ZM137.691 29.9375V28.9375H136.691V29.9375H137.691ZM146.691 29.9375H147.691V28.9375H146.691V29.9375ZM146.691 32.9023V33.9023H147.691V32.9023H146.691ZM132.605 32.9023H131.605V33.9023H132.605V32.9023ZM132.605 29.9375V28.9375H131.605V29.9375H132.605ZM140.5 29.9375V47H142.5V29.9375H140.5ZM141.5 46H137.691V48H141.5V46ZM138.691 47V29.9375H136.691V47H138.691ZM137.691 30.9375H141.5V28.9375H137.691V30.9375ZM145.691 29.9375V32.9023H147.691V29.9375H145.691ZM146.691 31.9023H132.605V33.9023H146.691V31.9023ZM133.605 32.9023V29.9375H131.605V32.9023H133.605ZM132.605 30.9375H146.691V28.9375H132.605V30.9375ZM167.586 42.3477L166.642 42.0186L166.639 42.025L167.586 42.3477ZM166.074 44.9844L165.332 44.3141L165.328 44.3185L166.074 44.9844ZM163.754 46.6602L164.149 47.5789L164.153 47.5772L163.754 46.6602ZM157.812 46.6602L157.414 47.5773L157.421 47.5801L157.812 46.6602ZM155.469 44.9844L154.727 45.6547L154.731 45.659L155.469 44.9844ZM153.945 34.6016L154.89 34.9306L154.89 34.9284L153.945 34.6016ZM155.457 31.9531L154.715 31.2828L154.711 31.2873L155.457 31.9531ZM157.789 30.2891L158.181 31.2091L158.188 31.2061L157.789 30.2891ZM163.742 30.2891L163.343 31.2062L163.35 31.209L163.742 30.2891ZM166.062 31.9531L165.316 32.619L165.32 32.6234L166.062 31.9531ZM167.586 34.6016L166.641 34.9284L166.642 34.9306L167.586 34.6016ZM164.035 35.7734L163.061 36L163.062 36.0025L164.035 35.7734ZM162.254 33.0664L161.782 33.948L161.794 33.9544L162.254 33.0664ZM159.254 33.0664L159.72 33.9511L159.733 33.9443L159.254 33.0664ZM158.164 34.0859L157.328 33.5379L157.321 33.5481L158.164 34.0859ZM157.496 35.7734L156.522 35.5469L156.52 35.5553L157.496 35.7734ZM157.496 41.1523L156.52 41.3681L156.523 41.3814L157.496 41.1523ZM159.266 43.8828L158.787 44.7607L158.793 44.7643L159.266 43.8828ZM162.266 43.8828L161.793 43.0013L161.787 43.0049L162.266 43.8828ZM164.035 41.1523L163.061 40.9258L163.059 40.9342L164.035 41.1523ZM167.125 38.0938V38.8555H169.125V38.0938H167.125ZM167.125 38.8555C167.125 40.0608 166.958 41.1109 166.642 42.0186L168.53 42.6767C168.933 41.522 169.125 40.2439 169.125 38.8555H167.125ZM166.639 42.025C166.327 42.9422 165.888 43.6991 165.332 44.3141L166.816 45.6547C167.573 44.8165 168.142 43.8156 168.532 42.6703L166.639 42.025ZM165.328 44.3185C164.777 44.9366 164.122 45.4097 163.355 45.7431L164.153 47.5772C165.183 47.1293 166.075 46.4853 166.82 45.6502L165.328 44.3185ZM163.359 45.7414C162.607 46.0645 161.756 46.2344 160.789 46.2344V48.2344C161.994 48.2344 163.119 48.0214 164.149 47.5789L163.359 45.7414ZM160.789 46.2344C159.823 46.2344 158.966 46.0646 158.204 45.7402L157.421 47.5801C158.456 48.0214 159.584 48.2344 160.789 48.2344V46.2344ZM158.211 45.7431C157.442 45.4088 156.777 44.933 156.207 44.3097L154.731 45.659C155.489 46.4888 156.386 47.1303 157.414 47.5772L158.211 45.7431ZM156.211 44.3141C155.654 43.6975 155.21 42.9383 154.89 42.0186L153.001 42.6767C153.399 43.8195 153.971 44.8182 154.727 45.6547L156.211 44.3141ZM154.89 42.0186C154.573 41.1109 154.406 40.0608 154.406 38.8555H152.406C152.406 40.2439 152.599 41.522 153.001 42.6767L154.89 42.0186ZM154.406 38.8555V38.0938H152.406V38.8555H154.406ZM154.406 38.0938C154.406 36.8885 154.573 35.8384 154.89 34.9306L153.001 34.2725C152.599 35.4273 152.406 36.7053 152.406 38.0938H154.406ZM154.89 34.9284C155.212 33.9983 155.653 33.2349 156.203 32.619L154.711 31.2873C153.964 32.1245 153.397 33.1267 153 34.2747L154.89 34.9284ZM156.199 32.6234C156.758 32.0042 157.416 31.5348 158.181 31.209L157.397 29.3691C156.365 29.8089 155.468 30.4489 154.715 31.2828L156.199 32.6234ZM158.188 31.2061C158.947 30.8759 159.802 30.7031 160.766 30.7031V28.7031C159.557 28.7031 158.428 28.921 157.39 29.372L158.188 31.2061ZM160.766 30.7031C161.729 30.7031 162.584 30.8759 163.343 31.2061L164.141 29.372C163.104 28.921 161.974 28.7031 160.766 28.7031V30.7031ZM163.35 31.209C164.114 31.5344 164.766 32.0024 165.316 32.619L166.809 31.2873C166.062 30.4507 165.167 29.8094 164.134 29.3691L163.35 31.209ZM165.32 32.6234C165.876 33.2387 166.32 34.0007 166.641 34.9284L168.531 34.2747C168.133 33.1243 167.561 32.1206 166.805 31.2828L165.32 32.6234ZM166.642 34.9306C166.958 35.8384 167.125 36.8885 167.125 38.0938H169.125C169.125 36.7053 168.933 35.4273 168.53 34.2725L166.642 34.9306ZM165.27 38.8555V38.0703H163.27V38.8555H165.27ZM165.27 38.0703C165.27 37.1457 165.186 36.3006 165.009 35.5444L163.062 36.0025C163.196 36.5744 163.27 37.2605 163.27 38.0703H165.27ZM165.009 35.5469C164.833 34.7905 164.568 34.112 164.192 33.5379L162.519 34.634C162.737 34.9661 162.925 35.4126 163.061 36L165.009 35.5469ZM164.192 33.5379C163.81 32.9556 163.319 32.4917 162.714 32.1784L161.794 33.9544C162.064 34.0942 162.307 34.31 162.519 34.634L164.192 33.5379ZM162.726 32.1849C162.127 31.8639 161.465 31.7148 160.766 31.7148V33.7148C161.175 33.7148 161.506 33.8001 161.782 33.9479L162.726 32.1849ZM160.766 31.7148C160.051 31.7148 159.376 31.8606 158.775 32.1885L159.733 33.9443C159.991 33.8034 160.324 33.7148 160.766 33.7148V31.7148ZM158.787 32.1818C158.191 32.4962 157.706 32.9597 157.328 33.5379L159.001 34.634C159.215 34.3059 159.457 34.0897 159.72 33.951L158.787 32.1818ZM157.321 33.5481C156.956 34.1196 156.697 34.7944 156.522 35.5469L158.47 36C158.608 35.4088 158.794 34.9585 159.007 34.6238L157.321 33.5481ZM156.52 35.5553C156.352 36.3074 156.273 37.1487 156.273 38.0703H158.273C158.273 37.2576 158.343 36.5676 158.472 35.9916L156.52 35.5553ZM156.273 38.0703V38.8555H158.273V38.0703H156.273ZM156.273 38.8555C156.273 39.7703 156.352 40.6104 156.52 41.3681L158.473 40.9366C158.343 40.3505 158.273 39.6594 158.273 38.8555H156.273ZM156.523 41.3814C156.699 42.1304 156.963 42.8044 157.335 43.3813L159.016 42.2984C158.794 41.9534 158.606 41.5024 158.47 40.9233L156.523 41.3814ZM157.335 43.3813C157.711 43.9657 158.193 44.437 158.787 44.7607L159.744 43.0049C159.479 42.8599 159.234 42.6358 159.016 42.2984L157.335 43.3813ZM158.793 44.7643C159.398 45.0884 160.073 45.2344 160.789 45.2344V43.2344C160.348 43.2344 160.008 43.146 159.738 43.0013L158.793 44.7643ZM160.789 45.2344C161.488 45.2344 162.149 45.0854 162.744 44.7607L161.787 43.0049C161.523 43.149 161.199 43.2344 160.789 43.2344V45.2344ZM162.738 44.7643C163.34 44.4415 163.829 43.9698 164.208 43.3813L162.526 42.2984C162.312 42.6318 162.066 42.8553 161.793 43.0013L162.738 44.7643ZM164.208 43.3813C164.582 42.8008 164.843 42.1228 165.011 41.3705L163.059 40.9342C162.931 41.51 162.746 41.957 162.526 42.2984L164.208 43.3813ZM165.009 41.3789C165.186 40.6172 165.27 39.7733 165.27 38.8555H163.27C163.27 39.6564 163.197 40.3437 163.061 40.9258L165.009 41.3789ZM176.516 43.2148L175.554 42.9399L175.537 43.0015L175.527 43.0649L176.516 43.2148ZM180.312 29.9375V28.9375H179.558L179.351 29.6626L180.312 29.9375ZM184.566 29.9375L185.512 30.2617L185.966 28.9375H184.566V29.9375ZM178.719 47V48H179.433L179.665 47.3242L178.719 47ZM175.941 47L174.953 46.85L174.778 48H175.941V47ZM173.059 29.9375L174.02 29.6633L173.813 28.9375H173.059V29.9375ZM176.844 43.2148L177.832 43.0589L177.822 42.999L177.805 42.9407L176.844 43.2148ZM177.441 47V48H178.612L178.429 46.844L177.441 47ZM174.629 47L173.682 47.3225L173.913 48H174.629V47ZM168.816 29.9375V28.9375H167.419L167.87 30.26L168.816 29.9375ZM177.477 43.4898L181.274 30.2124L179.351 29.6626L175.554 42.9399L177.477 43.4898ZM180.312 30.9375H184.566V28.9375H180.312V30.9375ZM183.62 29.6133L177.773 46.6758L179.665 47.3242L185.512 30.2617L183.62 29.6133ZM178.719 46H175.941V48H178.719V46ZM176.93 47.15L177.504 43.3648L175.527 43.0649L174.953 46.85L176.93 47.15ZM172.097 30.2117L175.882 43.489L177.805 42.9407L174.02 29.6633L172.097 30.2117ZM175.856 43.3708L176.454 47.156L178.429 46.844L177.832 43.0589L175.856 43.3708ZM177.441 46H174.629V48H177.441V46ZM175.575 46.6775L169.763 29.615L167.87 30.26L173.682 47.3225L175.575 46.6775ZM168.816 30.9375H173.059V28.9375H168.816V30.9375ZM197.586 44.0469H198.586V43.0469H197.586V44.0469ZM197.586 47V48H198.586V47H197.586ZM188.504 47H187.504V48H188.504V47ZM188.504 44.0469V43.0469H187.504V44.0469H188.504ZM189.805 29.9375H190.805V28.9375H189.805V29.9375ZM189.805 47V48H190.805V47H189.805ZM185.984 47H184.984V48H185.984V47ZM185.984 29.9375V28.9375H184.984V29.9375H185.984ZM196.414 36.8047H197.414V35.8047H196.414V36.8047ZM196.414 39.6641V40.6641H197.414V39.6641H196.414ZM188.504 39.6641H187.504V40.6641H188.504V39.6641ZM188.504 36.8047V35.8047H187.504V36.8047H188.504ZM197.598 29.9375H198.598V28.9375H197.598V29.9375ZM197.598 32.9023V33.9023H198.598V32.9023H197.598ZM188.504 32.9023H187.504V33.9023H188.504V32.9023ZM188.504 29.9375V28.9375H187.504V29.9375H188.504ZM196.586 44.0469V47H198.586V44.0469H196.586ZM197.586 46H188.504V48H197.586V46ZM189.504 47V44.0469H187.504V47H189.504ZM188.504 45.0469H197.586V43.0469H188.504V45.0469ZM188.805 29.9375V47H190.805V29.9375H188.805ZM189.805 46H185.984V48H189.805V46ZM186.984 47V29.9375H184.984V47H186.984ZM185.984 30.9375H189.805V28.9375H185.984V30.9375ZM195.414 36.8047V39.6641H197.414V36.8047H195.414ZM196.414 38.6641H188.504V40.6641H196.414V38.6641ZM189.504 39.6641V36.8047H187.504V39.6641H189.504ZM188.504 37.8047H196.414V35.8047H188.504V37.8047ZM196.598 29.9375V32.9023H198.598V29.9375H196.598ZM197.598 31.9023H188.504V33.9023H197.598V31.9023ZM189.504 32.9023V29.9375H187.504V32.9023H189.504ZM188.504 30.9375H197.598V28.9375H188.504V30.9375ZM199.461 29.9375V28.9375H198.461V29.9375H199.461ZM209.398 30.5234L209.019 31.4487L209.022 31.4498L209.398 30.5234ZM210.641 39.1133L210.028 38.3227L210.023 38.327L210.641 39.1133ZM208.719 40.1562L208.379 39.2159L208.306 39.242L208.239 39.279L208.719 40.1562ZM207.477 40.8359V41.8359H207.732L207.957 41.7132L207.477 40.8359ZM201.898 40.8359L200.898 40.8438L200.906 41.8359H201.898V40.8359ZM201.875 37.8711V36.8711H200.867L200.875 37.879L201.875 37.8711ZM208.285 36.7109L207.398 36.249L207.395 36.2562L208.285 36.7109ZM207.418 33.207L206.942 34.0863L206.953 34.0922L206.964 34.0978L207.418 33.207ZM203.281 32.9023V31.9023H202.281V32.9023H203.281ZM203.281 47V48H204.281V47H203.281ZM199.461 47H198.461V48H199.461V47ZM208.906 47L208.014 47.4511L208.291 48H208.906V47ZM205.074 39.418L205.071 38.418L203.451 38.4227L204.182 39.869L205.074 39.418ZM209.105 39.4062L209.991 38.9418L209.709 38.4045L209.103 38.4063L209.105 39.4062ZM212.996 46.8242H213.996V46.5779L213.882 46.3597L212.996 46.8242ZM212.996 47V48H213.996V47H212.996ZM199.461 30.9375H206.012V28.9375H199.461V30.9375ZM206.012 30.9375C207.22 30.9375 208.214 31.1187 209.019 31.4487L209.778 29.5981C208.677 29.147 207.413 28.9375 206.012 28.9375V30.9375ZM209.022 31.4498C209.822 31.7752 210.393 32.2356 210.784 32.8164L212.443 31.6992C211.803 30.7488 210.896 30.0529 209.775 29.5971L209.022 31.4498ZM210.784 32.8164C211.166 33.3839 211.387 34.1238 211.387 35.0938H213.387C213.387 33.8137 213.092 32.663 212.443 31.6992L210.784 32.8164ZM211.387 35.0938C211.387 35.9271 211.251 36.5719 211.023 37.0633L212.837 37.9055C213.218 37.0844 213.387 36.1354 213.387 35.0938H211.387ZM211.023 37.0633C210.783 37.5793 210.453 37.994 210.028 38.3227L211.253 39.9038C211.938 39.3732 212.467 38.702 212.837 37.9055L211.023 37.0633ZM210.023 38.327C209.569 38.6833 209.025 38.9821 208.379 39.2159L209.059 41.0966C209.881 40.7992 210.618 40.4026 211.258 39.8996L210.023 38.327ZM208.239 39.279L206.997 39.9587L207.957 41.7132L209.199 41.0335L208.239 39.279ZM207.477 39.8359H201.898V41.8359H207.477V39.8359ZM202.898 40.828L202.875 37.8632L200.875 37.879L200.898 40.8438L202.898 40.828ZM201.875 38.8711H206.023V36.8711H201.875V38.8711ZM206.023 38.8711C206.706 38.8711 207.355 38.7503 207.918 38.4457L206.965 36.6871C206.777 36.7888 206.481 36.8711 206.023 36.8711V38.8711ZM207.918 38.4457C208.464 38.1498 208.893 37.7195 209.176 37.1657L207.395 36.2562C207.302 36.4367 207.169 36.5768 206.965 36.6871L207.918 38.4457ZM209.172 37.1729C209.454 36.6313 209.578 36.03 209.578 35.3984H207.578C207.578 35.7669 207.507 36.0405 207.398 36.249L209.172 37.1729ZM209.578 35.3984C209.578 34.7568 209.456 34.1462 209.172 33.6006L207.398 34.5244C207.505 34.7288 207.578 35.0088 207.578 35.3984H209.578ZM209.172 33.6006C208.879 33.0379 208.437 32.6044 207.872 32.3163L206.964 34.0978C207.164 34.2003 207.301 34.3371 207.398 34.5244L209.172 33.6006ZM207.894 32.3277C207.334 32.0241 206.689 31.9023 206.012 31.9023V33.9023C206.459 33.9023 206.752 33.9837 206.942 34.0863L207.894 32.3277ZM206.012 31.9023H203.281V33.9023H206.012V31.9023ZM202.281 32.9023V47H204.281V32.9023H202.281ZM203.281 46H199.461V48H203.281V46ZM200.461 47V29.9375H198.461V47H200.461ZM209.799 46.5489L205.967 38.9669L204.182 39.869L208.014 47.4511L209.799 46.5489ZM205.077 40.418L209.108 40.4062L209.103 38.4063L205.071 38.418L205.077 40.418ZM208.22 39.8707L212.111 47.2887L213.882 46.3597L209.991 38.9418L208.22 39.8707ZM211.996 46.8242V47H213.996V46.8242H211.996ZM212.996 46H208.906V48H212.996V46Z" fill="white"/>
<defs>
<filter id="filter0_d_175_413" x="0" y="0" width="249.742" height="83" filterUnits="userSpaceOnUse" color-interpolation-filters="sRGB">
<feFlood flood-opacity="0" result="BackgroundImageFix"/>
<feColorMatrix in="SourceAlpha" type="matrix" values="0 0 0 0 0 0 0 0 0 0 0 0 0 0 0 0 0 0 127 0" result="hardAlpha"/>
<feOffset dy="4"/>
<feComposite in2="hardAlpha" operator="out"/>
<feColorMatrix type="matrix" values="0 0 0 0 0 0 0 0 0 0 0 0 0 0 0 0 0 0 0.25 0"/>
<feBlend mode="normal" in2="BackgroundImageFix" result="effect1_dropShadow_175_413"/>
<feBlend mode="normal" in="SourceGraphic" in2="effect1_dropShadow_175_413" result="shape"/>
</filter>
<linearGradient id="paint0_linear_175_413" x1="124.871" y1="0" x2="124.871" y2="145" gradientUnits="userSpaceOnUse">
<stop stop-color="#A6CF51"/>
<stop offset="1" stop-color="#09733B"/>
</linearGradient>
<linearGradient id="paint1_linear_175_413" x1="125" y1="3" x2="125" y2="69" gradientUnits="userSpaceOnUse">
<stop stop-color="#67E107"/>
<stop offset="1" stop-color="#93DB5B"/>
</linearGradient>
</defs>
</svg>
